<?xml version="1.0" encoding="utf-8"?>
<!-- Generator: Adobe Illustrator 16.0.0, SVG Export Plug-In . SVG Version: 6.00 Build 0)  -->
<!DOCTYPE svg PUBLIC "-//W3C//DTD SVG 1.1//EN" "http://www.w3.org/Graphics/SVG/1.1/DTD/svg11.dtd">
<svg version="1.1" id="Layer_1" xmlns="http://www.w3.org/2000/svg" xmlns:xlink="http://www.w3.org/1999/xlink" x="0px" y="0px"
	 width="150.125px" height="47.625px" viewBox="0 0 150.125 47.625" enable-background="new 0 0 150.125 47.625"
	 xml:space="preserve">
<g>
	<path fill="#396BEA" d="M24.586,22.799c0,1.479-1.196,2.676-2.674,2.676l0,0c-1.478,0-2.674-1.197-2.674-2.676l0,0
		c0-1.477,1.197-2.674,2.674-2.674l0,0C23.39,20.125,24.586,21.322,24.586,22.799L24.586,22.799z"/>
</g>
<g>
	<path d="M42.452,40.578c0,0.9-0.363,1.664-1.087,2.291s-1.557,0.94-2.498,0.94c-0.626,0-1.214-0.168-1.763-0.5
		c-0.55-0.332-0.98-0.851-1.293-1.558l-3.525-7.874H11.599l-3.526,7.874c-0.315,0.707-0.745,1.226-1.292,1.558
		c-0.55,0.332-1.157,0.5-1.822,0.5c-0.902,0-1.725-0.313-2.468-0.94c-0.745-0.627-1.117-1.391-1.117-2.291
		c0-0.51,0.118-1.019,0.353-1.529l16.22-34.85c0.353-0.783,0.891-1.381,1.616-1.793c0.725-0.411,1.499-0.617,2.321-0.617
		s1.596,0.206,2.322,0.617c0.725,0.412,1.263,1.01,1.616,1.793l16.278,34.85C42.334,39.56,42.452,40.068,42.452,40.578z
		 M14.185,28.002h15.515l-7.757-17.456L14.185,28.002z"/>
	<path d="M48.534,43.017c-0.686-0.606-1.028-1.479-1.028-2.616V5.316c0-1.136,0.343-1.998,1.028-2.585
		c0.685-0.588,1.557-0.882,2.616-0.882c1.058,0,1.939,0.294,2.644,0.882c0.705,0.587,1.058,1.45,1.058,2.585V40.4
		c0,1.138-0.353,2.01-1.058,2.616c-0.705,0.607-1.586,0.911-2.644,0.911C50.091,43.928,49.219,43.624,48.534,43.017z"/>
	<path d="M86.792,36.464c0.411,0.511,0.616,1.196,0.616,2.057c0,1.215-0.725,2.234-2.174,3.055
		c-1.332,0.747-2.841,1.344-4.525,1.793c-1.685,0.45-3.291,0.677-4.818,0.677c-4.624,0-8.287-1.331-10.99-3.996
		c-2.703-2.664-4.055-6.308-4.055-10.931c0-2.939,0.588-5.544,1.763-7.817c1.175-2.272,2.829-4.035,4.965-5.29
		c2.135-1.253,4.555-1.881,7.258-1.881c2.586,0,4.839,0.568,6.759,1.704c1.919,1.137,3.408,2.743,4.466,4.819
		c1.059,2.078,1.588,4.525,1.588,7.348c0,1.683-0.745,2.526-2.233,2.526H68.074c0.235,2.702,0.999,4.691,2.292,5.964
		c1.292,1.274,3.173,1.91,5.642,1.91c1.253,0,2.359-0.155,3.32-0.47c0.96-0.313,2.048-0.743,3.262-1.292
		c1.176-0.626,2.037-0.941,2.585-0.941C85.842,35.699,86.38,35.956,86.792,36.464z M70.219,21.183
		c-1.196,1.255-1.91,3.057-2.145,5.407h13.281c-0.079-2.389-0.666-4.201-1.763-5.436c-1.098-1.233-2.626-1.852-4.584-1.852
		C73.011,19.302,71.414,19.93,70.219,21.183z"/>
	<path fill="#396BEA" d="M119.024,40.578c0,0.862-0.333,1.636-0.999,2.321c-0.666,0.685-1.448,1.028-2.352,1.028
		c-0.979,0-1.82-0.412-2.525-1.235l-8.286-9.167l-8.287,9.167c-0.745,0.785-1.587,1.177-2.527,1.177c-0.862,0-1.625-0.332-2.291-1
		c-0.667-0.666-0.999-1.429-0.999-2.291c0-0.902,0.353-1.704,1.057-2.41l8.581-9.345l-8.109-8.815
		c-0.705-0.706-1.059-1.508-1.059-2.409c0-0.901,0.333-1.675,0.999-2.322c0.665-0.646,1.43-0.969,2.293-0.969
		c0.938,0,1.782,0.392,2.525,1.175l7.817,8.582l7.814-8.582c0.744-0.783,1.587-1.175,2.528-1.175c0.9,0,1.675,0.323,2.321,0.969
		c0.646,0.646,0.97,1.421,0.97,2.322c0,0.901-0.353,1.704-1.059,2.409l-8.109,8.815l8.639,9.345
		C118.672,38.874,119.024,39.676,119.024,40.578z"/>
	<path d="M145.383,17.099c1.939,1.979,2.909,4.987,2.909,9.022v14.338c0,1.059-0.315,1.891-0.941,2.499
		c-0.627,0.606-1.488,0.911-2.585,0.911c-1.019,0-1.851-0.314-2.498-0.941c-0.646-0.627-0.971-1.449-0.971-2.469v-1.293
		c-0.664,1.528-1.714,2.725-3.142,3.585c-1.432,0.861-3.086,1.294-4.968,1.294c-1.919,0-3.663-0.393-5.23-1.176
		c-1.566-0.783-2.801-1.86-3.701-3.232c-0.903-1.371-1.352-2.898-1.352-4.583c0-2.117,0.536-3.781,1.616-4.996
		c1.077-1.214,2.83-2.096,5.26-2.645c2.429-0.548,5.777-0.823,10.049-0.823h1.468v-1.35c0-1.921-0.41-3.322-1.233-4.203
		c-0.823-0.883-2.154-1.323-3.995-1.323c-1.138,0-2.293,0.167-3.468,0.5s-2.566,0.813-4.173,1.439
		c-1.02,0.51-1.763,0.765-2.233,0.765c-0.704,0-1.283-0.254-1.734-0.765c-0.449-0.508-0.675-1.175-0.675-1.998
		c0-0.666,0.166-1.243,0.5-1.734c0.333-0.489,0.89-0.949,1.674-1.381c1.37-0.744,3.007-1.332,4.907-1.763
		c1.901-0.431,3.771-0.647,5.612-0.647C140.476,14.131,143.443,15.121,145.383,17.099z M139.446,36.787
		c1.235-1.313,1.851-3.006,1.851-5.084v-1.234h-1.057c-2.624,0-4.663,0.119-6.111,0.354c-1.451,0.234-2.488,0.646-3.115,1.233
		c-0.628,0.588-0.94,1.391-0.94,2.409c0,1.255,0.44,2.283,1.321,3.086c0.883,0.803,1.97,1.205,3.264,1.205
		C136.616,38.756,138.213,38.101,139.446,36.787z"/>
</g>
</svg>
