<?xml version="1.0" encoding="UTF-8"?>
<svg enable-background="new 0 0 615.902 314.985" version="1.1" viewBox="0 0 615.9 314.98" xml:space="preserve" xmlns="http://www.w3.org/2000/svg">
    <g clip-path="url(#XMLID_60_)">
        <g fill="#012B81">
            <circle cx="-1212.6" cy="-47.193" r="8.361" />
            <circle cx="-1197.8" cy="-35.95" r="8.263" />
            <circle cx="-1182.5" cy="-25.365" r="8.165" />
            <circle cx="-1166.9" cy="-15.312" r="8.066" />
            <circle cx="-1151" cy="-5.761" r="7.969" />
            <circle cx="-1134.8" cy="3.294" r="7.872" />
            <circle cx="-1118.3" cy="11.842" r="7.773" />
            <circle cx="-1101.5" cy="19.872" r="7.677" />
            <path d="m-1084.5 34.938c-4.187 0-7.581-3.394-7.581-7.578 0-4.187 3.394-7.58 7.581-7.58 4.184 0 7.577 3.394 7.577 7.58 0 4.184-3.393 7.578-7.577 7.578z" />
            <circle cx="-1067.3" cy="34.285" r="7.48" />
            <circle cx="-1049.8" cy="40.622" r="7.383" />
            <circle cx="-1032.2" cy="46.339" r="7.285" />
            <circle cx="-1014.3" cy="51.403" r="7.188" />
            <circle cx="-996.24" cy="55.783" r="7.09" />
            <circle cx="-978.02" cy="59.445" r="6.993" />
            <path d="m-959.68 69.248c-3.809 0-6.896-3.086-6.896-6.897 0-3.806 3.087-6.891 6.896-6.891s6.894 3.085 6.894 6.891c0 3.811-3.086 6.897-6.894 6.897z" />
            <path d="m-941.22 71.271c-3.755 0-6.797-3.042-6.797-6.798 0-3.753 3.042-6.796 6.797-6.796 3.754 0 6.797 3.042 6.797 6.796 0 3.756-3.043 6.798-6.797 6.798z" />
            <circle cx="-922.69" cy="65.772" r="6.7" />
            <circle cx="-904.12" cy="66.223" r="6.603" />
            <circle cx="-885.55" cy="65.798" r="6.504" />
            <circle cx="-867.02" cy="64.477" r="6.407" />
            <circle cx="-848.59" cy="62.155" r="6.309" />
            <circle cx="-830.34" cy="58.645" r="6.211" />
            <circle cx="-812.37" cy="53.938" r="6.113" />
            <path d="m-794.74 54.092c-3.321 0-6.016-2.692-6.016-6.013 0-3.325 2.695-6.018 6.016-6.018 3.323 0 6.018 2.693 6.018 6.018 0 3.32-2.695 6.013-6.018 6.013z" />
            <circle cx="-777.51" cy="41.149" r="5.918" />
            <circle cx="-760.68" cy="33.281" r="5.821" />
            <circle cx="-744.24" cy="24.639" r="5.723" />
            <circle cx="-728.13" cy="15.41" r="5.625" />
            <circle cx="-712.23" cy="5.796" r="5.528" />
            <circle cx="-696.44" cy="-3.983" r="5.43" />
            <circle cx="-680.61" cy="-13.694" r="5.333" />
            <circle cx="-664.59" cy="-23.085" r="5.235" />
            <path d="m-648.24-26.756c-2.837 0-5.136-2.3-5.136-5.136 0-2.838 2.299-5.137 5.136-5.137 2.84 0 5.138 2.299 5.138 5.137-1e-3 2.836-2.298 5.136-5.138 5.136z" />
            <circle cx="-631.44" cy="-39.829" r="5.038" />
            <circle cx="-614.15" cy="-46.608" r="4.942" />
            <circle cx="-596.38" cy="-51.972" r="4.844" />
            <circle cx="-578.2" cy="-55.736" r="4.746" />
            <circle cx="-559.75" cy="-57.811" r="4.648" />
            <circle cx="-541.18" cy="-58.213" r="4.551" />
            <circle cx="-522.64" cy="-57.05" r="4.452" />
            <path d="m-504.25-50.12c-2.407 0-4.357-1.949-4.357-4.357 0-2.404 1.95-4.354 4.357-4.354 2.403 0 4.354 1.95 4.354 4.354 0 2.408-1.951 4.357-4.354 4.357z" />
            <circle cx="-486.07" cy="-50.669" r="4.258" />
            <circle cx="-468.15" cy="-45.797" r="4.16" />
            <circle cx="-450.5" cy="-40.014" r="4.062" />
            <circle cx="-433.12" cy="-33.455" r="3.965" />
            <circle cx="-416.01" cy="-26.228" r="3.867" />
            <circle cx="-399.15" cy="-18.428" r="3.77" />
            <path d="m-382.52-6.459c-2.029 0-3.675-1.643-3.675-3.671s1.646-3.672 3.675-3.672c2.026 0 3.67 1.645 3.67 3.672s-1.644 3.671-3.67 3.671z" />
            <circle cx="-366.01" cy="-1.619" r="3.573" />
            <circle cx="-349.34" cy="6.582" r="3.476" />
            <circle cx="-332.5" cy="14.425" r="3.379" />
            <circle cx="-315.48" cy="21.885" r="3.282" />
            <circle cx="-298.29" cy="28.931" r="3.182" />
            <circle cx="-280.92" cy="35.53" r="3.086" />
            <circle cx="-263.38" cy="41.651" r="2.989" />
            <circle cx="-245.66" cy="47.258" r="2.89" />
            <circle cx="-227.78" cy="52.318" r="2.793" />
            <circle cx="-209.75" cy="56.791" r="2.696" />
            <circle cx="-191.58" cy="60.649" r="2.598" />
            <circle cx="-173.28" cy="63.86" r="2.5" />
            <circle cx="-154.87" cy="66.397" r="2.402" />
            <circle cx="-136.39" cy="68.243" r="2.305" />
            <circle cx="-117.84" cy="69.389" r="2.207" />
            <circle cx="-99.271" cy="69.837" r="2.11" />
            <circle cx="-80.695" cy="69.601" r="2.012" />
            <circle cx="-62.139" cy="68.711" r="1.914" />
            <path d="m-43.613 69.024c-1.004 0-1.818-0.814-1.818-1.815 0-1.006 0.814-1.817 1.818-1.817 1.003 0 1.815 0.812 1.815 1.817 0 1.001-0.812 1.815-1.815 1.815z" />
            <circle cx="-25.147" cy="65.152" r="1.719" />
            <circle cx="-6.741" cy="62.612" r="1.62" />
            <circle cx="11.603" cy="59.671" r="1.523" />
            <circle cx="29.891" cy="56.423" r="1.427" />
            <circle cx="48.144" cy="52.967" r="1.329" />
            <path d="m66.378 50.642c-0.682 0-1.232-0.55-1.232-1.23 0-0.681 0.551-1.23 1.232-1.23 0.678 0 1.229 0.55 1.229 1.23-1e-3 0.68-0.551 1.23-1.229 1.23z" />
            <circle cx="84.612" cy="45.871" r="1.132" />
            <circle cx="102.87" cy="42.46" r="1.035" />
            <circle cx="121.18" cy="39.3" r=".937" />
            <circle cx="139.54" cy="36.505" r=".839" />
            <circle cx="157.97" cy="34.191" r=".742" />
            <circle cx="176.46" cy="32.464" r=".645" />
            <circle cx="195.01" cy="31.418" r=".546" />
            <circle cx="213.58" cy="31.132" r=".449" />
            <circle cx="232.15" cy="31.668" r=".351" />
            <circle cx="250.67" cy="33.059" r=".253" />
            <circle cx="269.11" cy="35.325" r=".157" />
            <circle cx="287.42" cy="38.456" r=".058" />
        </g>
        <g fill="#032D81">
            <circle cx="-1193.3" cy="-32.795" r="8.361" />
            <circle cx="-1178.6" cy="-21.51" r="8.263" />
            <circle cx="-1163.3" cy="-10.884" r="8.165" />
            <circle cx="-1147.7" cy="-.791" r="8.066" />
            <circle cx="-1131.8" cy="8.795" r="7.969" />
            <circle cx="-1115.6" cy="17.882" r="7.872" />
            <circle cx="-1099.2" cy="26.458" r="7.773" />
            <circle cx="-1082.4" cy="34.511" r="7.677" />
            <path d="m-1065.4 49.596c-4.187 0-7.58-3.394-7.58-7.578 0-4.186 3.394-7.58 7.58-7.58 4.184 0 7.577 3.394 7.577 7.58 0 4.185-3.393 7.578-7.577 7.578z" />
            <circle cx="-1048.2" cy="48.956" r="7.48" />
            <circle cx="-1030.7" cy="55.298" r="7.383" />
            <circle cx="-1013.1" cy="61.014" r="7.285" />
            <circle cx="-995.19" cy="66.068" r="7.188" />
            <circle cx="-977.13" cy="70.43" r="7.09" />
            <circle cx="-958.92" cy="74.063" r="6.993" />
            <path d="m-940.56 83.828c-3.809 0-6.895-3.086-6.895-6.897 0-3.806 3.086-6.891 6.895-6.891 3.808 0 6.894 3.085 6.894 6.891 0 3.811-3.085 6.897-6.894 6.897z" />
            <path d="m-922.1 85.8c-3.755 0-6.796-3.041-6.796-6.798 0-3.753 3.042-6.795 6.796-6.795 3.753 0 6.796 3.042 6.796 6.795 1e-3 3.757-3.042 6.798-6.796 6.798z" />
            <circle cx="-903.57" cy="80.243" r="6.699" />
            <circle cx="-885" cy="80.623" r="6.602" />
            <circle cx="-866.44" cy="80.118" r="6.504" />
            <circle cx="-847.91" cy="78.708" r="6.406" />
            <circle cx="-829.5" cy="76.299" r="6.308" />
            <circle cx="-811.27" cy="72.722" r="6.211" />
            <circle cx="-793.31" cy="67.974" r="6.113" />
            <circle cx="-775.68" cy="62.097" r="6.015" />
            <circle cx="-758.45" cy="55.181" r="5.917" />
            <circle cx="-741.6" cy="47.347" r="5.82" />
            <circle cx="-725.14" cy="38.761" r="5.722" />
            <circle cx="-708.98" cy="29.607" r="5.625" />
            <circle cx="-693.04" cy="20.082" r="5.527" />
            <circle cx="-677.19" cy="10.401" r="5.429" />
            <circle cx="-661.3" cy=".795" r="5.332" />
            <circle cx="-645.23" cy="-8.49" r="5.234" />
            <path d="m-628.83-12.061c-2.836 0-5.134-2.299-5.134-5.135 0-2.838 2.298-5.136 5.134-5.136 2.839 0 5.137 2.298 5.137 5.136 0 2.836-2.298 5.135-5.137 5.135z" />
            <circle cx="-611.99" cy="-25.04" r="5.037" />
            <circle cx="-594.68" cy="-31.742" r="4.94" />
            <circle cx="-576.88" cy="-37.051" r="4.843" />
            <circle cx="-558.7" cy="-40.784" r="4.744" />
            <circle cx="-540.25" cy="-42.853" r="4.647" />
            <circle cx="-521.68" cy="-43.269" r="4.55" />
            <circle cx="-503.14" cy="-42.136" r="4.451" />
            <circle cx="-484.74" cy="-39.604" r="4.354" />
            <circle cx="-466.55" cy="-35.843" r="4.256" />
            <circle cx="-448.62" cy="-31.02" r="4.158" />
            <circle cx="-430.96" cy="-25.284" r="4.061" />
            <circle cx="-413.56" cy="-18.77" r="3.963" />
            <circle cx="-396.43" cy="-11.584" r="3.865" />
            <circle cx="-379.56" cy="-3.822" r="3.768" />
            <path d="m-362.92 8.11c-2.028 0-3.673-1.643-3.673-3.669s1.645-3.67 3.673-3.67c2.025 0 3.668 1.644 3.668 3.67s-1.643 3.669-3.668 3.669z" />
            <circle cx="-346.38" cy="12.906" r="3.571" />
            <circle cx="-329.69" cy="21.06" r="3.474" />
            <circle cx="-312.82" cy="28.857" r="3.377" />
            <circle cx="-295.79" cy="36.272" r="3.28" />
            <circle cx="-278.58" cy="43.275" r="3.18" />
            <circle cx="-261.2" cy="49.832" r="3.084" />
            <circle cx="-243.64" cy="55.914" r="2.987" />
            <circle cx="-225.91" cy="61.483" r="2.888" />
            <circle cx="-208.03" cy="66.507" r="2.791" />
            <circle cx="-189.99" cy="70.947" r="2.693" />
            <circle cx="-171.81" cy="74.775" r="2.596" />
            <circle cx="-153.5" cy="77.959" r="2.497" />
            <circle cx="-135.1" cy="80.474" r="2.4" />
            <circle cx="-116.61" cy="82.3" r="2.303" />
            <circle cx="-98.063" cy="83.431" r="2.205" />
            <circle cx="-79.491" cy="83.867" r="2.108" />
            <circle cx="-60.915" cy="83.624" r="2.01" />
            <circle cx="-42.358" cy="82.73" r="1.912" />
            <path d="m-23.834 83.042c-1.002 0-1.815-0.813-1.815-1.813 0-1.005 0.813-1.815 1.815-1.815s1.813 0.811 1.813 1.815c0 1-0.811 1.813-1.813 1.813z" />
            <circle cx="-5.368" cy="79.176" r="1.717" />
            <circle cx="13.04" cy="76.644" r="1.618" />
            <circle cx="31.385" cy="73.714" r="1.521" />
            <circle cx="49.676" cy="70.482" r="1.424" />
            <circle cx="67.932" cy="67.044" r="1.326" />
            <path d="m86.171 64.739c-0.681 0-1.23-0.549-1.23-1.228s0.55-1.228 1.23-1.228c0.676 0 1.226 0.548 1.226 1.228-1e-3 0.678-0.55 1.228-1.226 1.228z" />
            <circle cx="104.41" cy="59.995" r="1.129" />
            <circle cx="122.68" cy="56.613" r="1.032" />
            <circle cx="140.98" cy="53.485" r=".934" />
            <circle cx="159.35" cy="50.725" r=".836" />
            <circle cx="177.79" cy="48.448" r=".739" />
            <path d="m196.28 47.403c-0.356 0-0.644-0.288-0.644-0.643s0.287-0.642 0.644-0.642c0.353 0 0.64 0.287 0.64 0.642s-0.287 0.643-0.64 0.643z" />
            <circle cx="214.83" cy="45.754" r=".543" />
            <circle cx="233.4" cy="45.509" r=".447" />
            <path d="m251.97 46.431c-0.192 0-0.349-0.157-0.349-0.349 0-0.191 0.156-0.348 0.349-0.348 0.189 0 0.348 0.157 0.348 0.348-1e-3 0.192-0.159 0.349-0.348 0.349z" />
            <circle cx="270.49" cy="47.509" r=".25" />
            <circle cx="288.92" cy="49.807" r=".154" />
            <circle cx="307.23" cy="52.966" r=".055" />
        </g>
        <g fill="#062F81">
            <circle cx="-1174" cy="-18.398" r="8.361" />
            <circle cx="-1159.3" cy="-7.068" r="8.263" />
            <circle cx="-1144.1" cy="3.599" r="8.165" />
            <circle cx="-1128.6" cy="13.729" r="8.066" />
            <circle cx="-1112.7" cy="23.351" r="7.969" />
            <circle cx="-1096.5" cy="32.471" r="7.872" />
            <circle cx="-1080" cy="41.075" r="7.773" />
            <circle cx="-1063.3" cy="49.151" r="7.676" />
            <circle cx="-1046.3" cy="56.676" r="7.579" />
            <circle cx="-1029.1" cy="63.627" r="7.48" />
            <circle cx="-1011.6" cy="69.975" r="7.382" />
            <circle cx="-993.97" cy="75.689" r="7.285" />
            <circle cx="-976.09" cy="80.733" r="7.187" />
            <circle cx="-958.03" cy="85.076" r="7.089" />
            <circle cx="-939.81" cy="88.681" r="6.992" />
            <circle cx="-921.45" cy="91.512" r="6.894" />
            <circle cx="-902.98" cy="93.534" r="6.796" />
            <circle cx="-884.45" cy="94.713" r="6.699" />
            <circle cx="-865.88" cy="95.023" r="6.602" />
            <circle cx="-847.32" cy="94.438" r="6.503" />
            <circle cx="-828.81" cy="92.938" r="6.405" />
            <circle cx="-810.4" cy="90.442" r="6.308" />
            <circle cx="-792.19" cy="86.8" r="6.21" />
            <circle cx="-774.24" cy="82.011" r="6.112" />
            <circle cx="-756.62" cy="76.118" r="6.014" />
            <circle cx="-739.38" cy="69.212" r="5.916" />
            <circle cx="-722.53" cy="61.414" r="5.819" />
            <circle cx="-706.03" cy="52.884" r="5.721" />
            <circle cx="-689.84" cy="43.804" r="5.624" />
            <circle cx="-673.84" cy="34.367" r="5.526" />
            <circle cx="-657.94" cy="24.786" r="5.428" />
            <circle cx="-642" cy="15.284" r="5.331" />
            <circle cx="-625.86" cy="6.105" r="5.233" />
            <circle cx="-609.41" cy="-2.499" r="5.134" />
            <circle cx="-592.54" cy="-10.251" r="5.036" />
            <circle cx="-575.2" cy="-16.876" r="4.939" />
            <circle cx="-557.39" cy="-22.13" r="4.842" />
            <circle cx="-539.2" cy="-25.833" r="4.743" />
            <circle cx="-520.75" cy="-27.895" r="4.645" />
            <circle cx="-502.18" cy="-28.326" r="4.548" />
            <circle cx="-483.64" cy="-27.223" r="4.449" />
            <path d="m-465.24-20.379c-2.405 0-4.354-1.948-4.354-4.354 0-2.403 1.949-4.352 4.354-4.352 2.401 0 4.351 1.949 4.351 4.352-1e-3 2.405-1.95 4.354-4.351 4.354z" />
            <circle cx="-447.04" cy="-21.018" r="4.255" />
            <circle cx="-429.09" cy="-16.243" r="4.156" />
            <circle cx="-411.41" cy="-10.554" r="4.059" />
            <circle cx="-394" cy="-4.084" r="3.962" />
            <circle cx="-376.86" cy="3.059" r="3.863" />
            <circle cx="-359.96" cy="10.783" r="3.766" />
            <path d="m-343.31 22.679c-2.027 0-3.671-1.641-3.671-3.667 0-2.025 1.644-3.668 3.671-3.668 2.024 0 3.666 1.643 3.666 3.668 0 2.026-1.641 3.667-3.666 3.667z" />
            <circle cx="-326.75" cy="27.431" r="3.57" />
            <circle cx="-310.03" cy="35.538" r="3.472" />
            <circle cx="-293.15" cy="43.29" r="3.375" />
            <circle cx="-276.1" cy="50.66" r="3.278" />
            <circle cx="-258.87" cy="57.619" r="3.178" />
            <circle cx="-241.47" cy="64.135" r="3.082" />
            <circle cx="-223.9" cy="70.176" r="2.985" />
            <circle cx="-206.17" cy="75.707" r="2.885" />
            <circle cx="-188.27" cy="80.696" r="2.789" />
            <circle cx="-170.22" cy="85.104" r="2.691" />
            <circle cx="-152.04" cy="88.902" r="2.594" />
            <circle cx="-133.73" cy="92.059" r="2.495" />
            <circle cx="-115.32" cy="94.55" r="2.398" />
            <circle cx="-96.829" cy="96.357" r="2.3" />
            <circle cx="-78.283" cy="97.473" r="2.202" />
            <circle cx="-59.711" cy="97.897" r="2.105" />
            <circle cx="-41.135" cy="97.646" r="2.007" />
            <circle cx="-22.579" cy="96.75" r="1.909" />
            <path d="m-4.055 97.059c-1.001 0-1.813-0.812-1.813-1.81 0-1.004 0.813-1.813 1.813-1.813s1.811 0.81 1.811 1.813c0 0.999-0.81 1.81-1.811 1.81z" />
            <circle cx="14.412" cy="93.2" r="1.714" />
            <circle cx="32.82" cy="90.676" r="1.615" />
            <circle cx="51.167" cy="87.758" r="1.519" />
            <circle cx="69.461" cy="84.541" r="1.422" />
            <circle cx="87.721" cy="81.122" r="1.323" />
            <circle cx="105.96" cy="77.61" r="1.225" />
            <circle cx="124.21" cy="74.12" r="1.127" />
            <circle cx="142.48" cy="70.767" r="1.03" />
            <circle cx="160.79" cy="67.671" r=".931" />
            <circle cx="179.16" cy="64.946" r=".834" />
            <circle cx="197.6" cy="62.707" r=".736" />
            <circle cx="216.1" cy="61.057" r=".64" />
            <circle cx="234.65" cy="60.091" r=".541" />
            <circle cx="253.22" cy="59.885" r=".444" />
            <circle cx="271.79" cy="60.497" r=".346" />
            <circle cx="290.31" cy="61.958" r=".248" />
            <circle cx="308.74" cy="64.289" r=".151" />
            <circle cx="327.04" cy="67.476" r=".052" />
        </g>
        <g fill="#083181">
            <circle cx="-1154.8" cy="-4" r="8.361" />
            <circle cx="-1140.1" cy="7.373" r="8.263" />
            <circle cx="-1124.9" cy="18.081" r="8.165" />
            <circle cx="-1109.4" cy="28.25" r="8.066" />
            <circle cx="-1093.5" cy="37.907" r="7.969" />
            <circle cx="-1077.4" cy="47.059" r="7.871" />
            <circle cx="-1060.9" cy="55.691" r="7.773" />
            <circle cx="-1044.2" cy="63.791" r="7.676" />
            <circle cx="-1027.2" cy="71.334" r="7.578" />
            <circle cx="-1010" cy="78.298" r="7.48" />
            <circle cx="-992.55" cy="84.652" r="7.382" />
            <circle cx="-974.87" cy="90.364" r="7.284" />
            <circle cx="-956.99" cy="95.399" r="7.187" />
            <circle cx="-938.93" cy="99.723" r="7.089" />
            <circle cx="-920.7" cy="103.3" r="6.992" />
            <path d="m-902.34 112.98c-3.808 0-6.894-3.085-6.894-6.896 0-3.805 3.086-6.891 6.894-6.891s6.893 3.086 6.893 6.891c0 3.811-3.086 6.896-6.893 6.896z" />
            <circle cx="-883.87" cy="108.06" r="6.795" />
            <circle cx="-865.33" cy="109.18" r="6.698" />
            <circle cx="-846.76" cy="109.42" r="6.601" />
            <circle cx="-828.21" cy="108.76" r="6.502" />
            <circle cx="-809.7" cy="107.17" r="6.405" />
            <circle cx="-791.32" cy="104.58" r="6.307" />
            <circle cx="-773.12" cy="100.88" r="6.209" />
            <circle cx="-755.18" cy="96.046" r="6.111" />
            <circle cx="-737.57" cy="90.139" r="6.013" />
            <circle cx="-720.32" cy="83.244" r="5.916" />
            <circle cx="-703.45" cy="75.48" r="5.818" />
            <circle cx="-686.92" cy="67.007" r="5.72" />
            <circle cx="-670.69" cy="58.001" r="5.622" />
            <circle cx="-654.65" cy="48.653" r="5.525" />
            <circle cx="-638.69" cy="39.17" r="5.427" />
            <circle cx="-622.69" cy="29.774" r="5.329" />
            <circle cx="-606.5" cy="20.7" r="5.232" />
            <circle cx="-590" cy="12.198" r="5.133" />
            <circle cx="-573.09" cy="4.539" r="5.035" />
            <circle cx="-555.72" cy="-2.01" r="4.938" />
            <circle cx="-537.9" cy="-7.209" r="4.84" />
            <circle cx="-519.7" cy="-10.881" r="4.742" />
            <circle cx="-501.24" cy="-12.936" r="4.644" />
            <circle cx="-482.68" cy="-13.382" r="4.547" />
            <circle cx="-464.14" cy="-12.311" r="4.448" />
            <circle cx="-445.73" cy="-9.86" r="4.351" />
            <circle cx="-427.52" cy="-6.192" r="4.253" />
            <circle cx="-409.56" cy="-1.466" r="4.155" />
            <circle cx="-391.87" cy="4.176" r="4.057" />
            <circle cx="-374.44" cy="10.601" r="3.96" />
            <circle cx="-357.28" cy="17.703" r="3.861" />
            <circle cx="-340.37" cy="25.389" r="3.764" />
            <path d="m-323.7 37.248c-2.025 0-3.669-1.641-3.669-3.666 0-2.024 1.644-3.666 3.669-3.666 2.023 0 3.664 1.642 3.664 3.666 0 2.025-1.641 3.666-3.664 3.666z" />
            <circle cx="-307.12" cy="41.956" r="3.567" />
            <circle cx="-290.38" cy="50.016" r="3.47" />
            <circle cx="-273.48" cy="57.722" r="3.373" />
            <circle cx="-256.41" cy="65.047" r="3.275" />
            <path d="m-239.16 75.14c-1.753 0-3.175-1.42-3.175-3.176s1.422-3.177 3.175-3.177c1.757 0 3.179 1.422 3.179 3.177s-1.422 3.176-3.179 3.176z" />
            <circle cx="-221.75" cy="78.437" r="3.08" />
            <circle cx="-204.17" cy="84.439" r="2.982" />
            <circle cx="-186.42" cy="89.932" r="2.884" />
            <circle cx="-168.52" cy="94.884" r="2.787" />
            <circle cx="-150.46" cy="99.26" r="2.689" />
            <circle cx="-132.27" cy="103.03" r="2.591" />
            <circle cx="-113.96" cy="106.16" r="2.493" />
            <circle cx="-95.541" cy="108.63" r="2.396" />
            <circle cx="-77.05" cy="110.42" r="2.298" />
            <circle cx="-58.503" cy="111.51" r="2.2" />
            <circle cx="-39.932" cy="111.93" r="2.104" />
            <circle cx="-21.355" cy="111.67" r="2.005" />
            <circle cx="-2.799" cy="110.77" r="1.906" />
            <path d="m15.725 111.08c-0.999 0-1.811-0.811-1.811-1.807 0-1.002 0.812-1.811 1.811-1.811s1.809 0.809 1.809 1.811c-1e-3 0.996-0.81 1.807-1.809 1.807z" />
            <circle cx="34.191" cy="107.22" r="1.711" />
            <circle cx="52.601" cy="104.71" r="1.613" />
            <circle cx="70.949" cy="101.8" r="1.516" />
            <circle cx="89.246" cy="98.599" r="1.418" />
            <circle cx="107.51" cy="95.198" r="1.321" />
            <circle cx="125.76" cy="91.71" r="1.222" />
            <circle cx="144" cy="88.245" r="1.124" />
            <circle cx="162.28" cy="84.921" r="1.027" />
            <circle cx="180.6" cy="81.856" r=".929" />
            <circle cx="198.98" cy="79.166" r=".831" />
            <circle cx="217.42" cy="76.964" r=".734" />
            <circle cx="235.92" cy="75.354" r=".637" />
            <circle cx="254.47" cy="74.428" r=".538" />
            <circle cx="273.04" cy="74.261" r=".441" />
            <circle cx="291.61" cy="74.911" r=".343" />
            <circle cx="310.12" cy="76.408" r=".245" />
            <circle cx="328.55" cy="78.771" r=".148" />
            <circle cx="346.84" cy="81.985" r=".049" />
        </g>
        <g fill="#0A3381">
            <circle cx="-1135.5" cy="10.398" r="8.36" />
            <circle cx="-1120.9" cy="21.814" r="8.263" />
            <circle cx="-1105.7" cy="32.563" r="8.165" />
            <circle cx="-1090.2" cy="42.771" r="8.066" />
            <circle cx="-1074.4" cy="52.463" r="7.969" />
            <circle cx="-1058.2" cy="61.647" r="7.871" />
            <circle cx="-1041.8" cy="70.308" r="7.772" />
            <circle cx="-1025.1" cy="78.431" r="7.676" />
            <circle cx="-1008.1" cy="85.993" r="7.578" />
            <circle cx="-990.91" cy="92.969" r="7.479" />
            <circle cx="-973.46" cy="99.329" r="7.382" />
            <circle cx="-955.78" cy="105.04" r="7.284" />
            <circle cx="-937.9" cy="110.06" r="7.187" />
            <circle cx="-919.83" cy="114.37" r="7.089" />
            <circle cx="-901.59" cy="117.92" r="6.992" />
            <circle cx="-883.22" cy="120.67" r="6.893" />
            <circle cx="-864.75" cy="122.6" r="6.795" />
            <circle cx="-846.21" cy="123.65" r="6.698" />
            <circle cx="-827.64" cy="123.82" r="6.601" />
            <circle cx="-809.09" cy="123.08" r="6.502" />
            <circle cx="-790.6" cy="121.4" r="6.405" />
            <circle cx="-772.22" cy="118.73" r="6.307" />
            <circle cx="-754.04" cy="114.96" r="6.208" />
            <circle cx="-736.12" cy="110.08" r="6.11" />
            <path d="m-718.51 110.17c-3.319 0-6.012-2.69-6.012-6.01 0-3.323 2.693-6.015 6.012-6.015 3.322 0 6.014 2.691 6.014 6.015 0 3.32-2.693 6.01-6.014 6.01z" />
            <circle cx="-701.26" cy="97.275" r="5.914" />
            <circle cx="-684.37" cy="89.546" r="5.817" />
            <circle cx="-667.82" cy="81.13" r="5.719" />
            <circle cx="-651.54" cy="72.198" r="5.621" />
            <circle cx="-635.45" cy="62.939" r="5.523" />
            <circle cx="-619.44" cy="53.555" r="5.426" />
            <circle cx="-603.38" cy="44.263" r="5.328" />
            <circle cx="-587.14" cy="35.295" r="5.231" />
            <path d="m-570.59 32.027c-2.834 0-5.131-2.297-5.131-5.131 0-2.835 2.297-5.132 5.131-5.132 2.837 0 5.133 2.297 5.133 5.132 0 2.833-2.296 5.131-5.133 5.131z" />
            <circle cx="-553.64" cy="19.328" r="5.033" />
            <circle cx="-536.24" cy="12.855" r="4.936" />
            <circle cx="-518.4" cy="7.711" r="4.839" />
            <circle cx="-500.2" cy="4.071" r="4.74" />
            <circle cx="-481.74" cy="2.022" r="4.642" />
            <circle cx="-463.18" cy="1.562" r="4.545" />
            <circle cx="-444.64" cy="2.603" r="4.447" />
            <path d="m-426.22 9.361c-2.403 0-4.351-1.946-4.351-4.35 0-2.401 1.947-4.349 4.351-4.349 2.399 0 4.347 1.948 4.347 4.349 0 2.404-1.947 4.35-4.347 4.35z" />
            <circle cx="-408.01" cy="8.633" r="4.251" />
            <circle cx="-390.04" cy="13.312" r="4.153" />
            <circle cx="-372.33" cy="18.906" r="4.055" />
            <circle cx="-354.88" cy="25.286" r="3.958" />
            <circle cx="-337.71" cy="32.346" r="3.86" />
            <circle cx="-320.78" cy="39.994" r="3.762" />
            <circle cx="-304.09" cy="48.153" r="3.664" />
            <circle cx="-287.49" cy="56.48" r="3.566" />
            <circle cx="-270.73" cy="64.494" r="3.469" />
            <circle cx="-253.8" cy="72.154" r="3.371" />
            <circle cx="-236.72" cy="79.435" r="3.273" />
            <circle cx="-219.46" cy="86.307" r="3.175" />
            <circle cx="-202.03" cy="92.739" r="3.078" />
            <circle cx="-184.43" cy="98.701" r="2.98" />
            <circle cx="-166.67" cy="104.16" r="2.881" />
            <circle cx="-148.76" cy="109.07" r="2.785" />
            <circle cx="-130.7" cy="113.42" r="2.687" />
            <circle cx="-112.5" cy="117.15" r="2.589" />
            <circle cx="-94.181" cy="120.26" r="2.491" />
            <circle cx="-75.764" cy="122.7" r="2.393" />
            <circle cx="-57.271" cy="124.47" r="2.295" />
            <circle cx="-38.724" cy="125.56" r="2.198" />
            <circle cx="-20.151" cy="125.96" r="2.101" />
            <circle cx="-1.575" cy="125.69" r="2.003" />
            <circle cx="16.98" cy="124.79" r="1.904" />
            <circle cx="35.504" cy="123.29" r="1.807" />
            <circle cx="53.972" cy="121.25" r="1.709" />
            <circle cx="72.382" cy="118.74" r="1.611" />
            <circle cx="90.731" cy="115.84" r="1.514" />
            <circle cx="109.03" cy="112.66" r="1.416" />
            <circle cx="127.3" cy="109.28" r="1.318" />
            <circle cx="145.55" cy="105.81" r="1.22" />
            <circle cx="163.8" cy="102.37" r="1.122" />
            <circle cx="182.08" cy="99.075" r="1.024" />
            <circle cx="200.41" cy="96.042" r=".927" />
            <circle cx="218.79" cy="93.386" r=".828" />
            <circle cx="237.24" cy="91.222" r=".731" />
            <circle cx="255.74" cy="89.651" r=".634" />
            <circle cx="274.29" cy="88.765" r=".536" />
            <circle cx="292.87" cy="88.637" r=".438" />
            <circle cx="311.43" cy="89.326" r=".34" />
            <circle cx="329.94" cy="90.858" r=".242" />
            <circle cx="348.36" cy="93.252" r=".146" />
            <circle cx="366.65" cy="96.495" r=".046" />
        </g>
        <g fill="#0D3581">
            <circle cx="-1116.2" cy="24.796" r="8.361" />
            <circle cx="-1101.6" cy="36.255" r="8.263" />
            <circle cx="-1086.5" cy="47.044" r="8.164" />
            <circle cx="-1071" cy="57.291" r="8.066" />
            <circle cx="-1055.2" cy="67.02" r="7.969" />
            <circle cx="-1039.1" cy="76.235" r="7.872" />
            <circle cx="-1022.7" cy="84.924" r="7.773" />
            <circle cx="-1006" cy="93.071" r="7.675" />
            <circle cx="-989.02" cy="100.65" r="7.578" />
            <circle cx="-971.81" cy="107.64" r="7.479" />
            <circle cx="-954.36" cy="114" r="7.381" />
            <circle cx="-936.68" cy="119.71" r="7.283" />
            <circle cx="-918.8" cy="124.73" r="7.186" />
            <circle cx="-900.73" cy="129.02" r="7.088" />
            <circle cx="-882.49" cy="132.54" r="6.991" />
            <circle cx="-864.11" cy="135.25" r="6.892" />
            <circle cx="-845.63" cy="137.12" r="6.795" />
            <circle cx="-827.09" cy="138.12" r="6.697" />
            <circle cx="-808.52" cy="138.22" r="6.6" />
            <circle cx="-789.98" cy="137.4" r="6.501" />
            <circle cx="-771.49" cy="135.63" r="6.404" />
            <circle cx="-753.13" cy="132.87" r="6.306" />
            <circle cx="-734.96" cy="129.03" r="6.208" />
            <circle cx="-717.05" cy="124.12" r="6.109" />
            <circle cx="-699.45" cy="118.18" r="6.012" />
            <circle cx="-682.2" cy="111.31" r="5.914" />
            <circle cx="-665.29" cy="103.61" r="5.816" />
            <circle cx="-648.71" cy="95.252" r="5.719" />
            <circle cx="-632.4" cy="86.396" r="5.621" />
            <circle cx="-616.26" cy="77.225" r="5.522" />
            <circle cx="-600.19" cy="67.939" r="5.425" />
            <circle cx="-584.08" cy="58.752" r="5.327" />
            <circle cx="-567.78" cy="49.89" r="5.229" />
            <circle cx="-551.18" cy="41.593" r="5.131" />
            <circle cx="-534.19" cy="34.117" r="5.032" />
            <circle cx="-516.77" cy="27.721" r="4.935" />
            <circle cx="-498.91" cy="22.633" r="4.838" />
            <circle cx="-480.7" cy="19.022" r="4.739" />
            <path d="m-462.24 21.621c-2.562 0-4.64-2.078-4.64-4.639 0-2.564 2.078-4.643 4.64-4.643 2.564 0 4.644 2.078 4.644 4.643-1e-3 2.561-2.08 4.639-4.644 4.639z" />
            <circle cx="-443.68" cy="16.505" r="4.543" />
            <circle cx="-425.13" cy="17.515" r="4.445" />
            <circle cx="-406.71" cy="19.884" r="4.348" />
            <circle cx="-388.49" cy="23.459" r="4.25" />
            <path d="m-370.51 32.24c-2.295 0-4.153-1.858-4.153-4.151s1.858-4.151 4.153-4.151c2.291 0 4.15 1.859 4.15 4.151s-1.859 4.151-4.15 4.151z" />
            <circle cx="-352.78" cy="33.636" r="4.054" />
            <circle cx="-335.33" cy="39.971" r="3.956" />
            <circle cx="-318.13" cy="46.99" r="3.858" />
            <circle cx="-301.19" cy="54.6" r="3.76" />
            <circle cx="-284.48" cy="62.724" r="3.662" />
            <circle cx="-267.86" cy="71.005" r="3.564" />
            <circle cx="-251.07" cy="78.972" r="3.466" />
            <circle cx="-234.13" cy="86.586" r="3.369" />
            <circle cx="-217.02" cy="93.823" r="3.271" />
            <circle cx="-199.75" cy="100.65" r="3.172" />
            <circle cx="-182.3" cy="107.04" r="3.076" />
            <circle cx="-164.7" cy="112.96" r="2.978" />
            <circle cx="-146.93" cy="118.38" r="2.879" />
            <circle cx="-129" cy="123.26" r="2.782" />
            <circle cx="-110.93" cy="127.57" r="2.684" />
            <circle cx="-92.727" cy="131.28" r="2.586" />
            <circle cx="-74.406" cy="134.36" r="2.489" />
            <circle cx="-55.986" cy="136.78" r="2.39" />
            <circle cx="-37.492" cy="138.53" r="2.293" />
            <circle cx="-18.943" cy="139.6" r="2.195" />
            <circle cx="-.371" cy="139.99" r="2.098" />
            <circle cx="18.205" cy="139.71" r="2" />
            <circle cx="36.761" cy="138.81" r="1.902" />
            <circle cx="55.283" cy="137.31" r="1.804" />
            <circle cx="73.751" cy="135.27" r="1.706" />
            <circle cx="92.163" cy="132.77" r="1.608" />
            <circle cx="110.51" cy="129.89" r="1.511" />
            <circle cx="128.82" cy="126.72" r="1.414" />
            <circle cx="147.09" cy="123.35" r="1.316" />
            <circle cx="165.34" cy="119.91" r="1.217" />
            <circle cx="183.6" cy="116.49" r="1.119" />
            <circle cx="201.89" cy="113.23" r="1.021" />
            <circle cx="220.21" cy="110.23" r=".924" />
            <circle cx="238.6" cy="107.61" r=".826" />
            <circle cx="257.06" cy="105.48" r=".729" />
            <circle cx="275.56" cy="103.95" r=".632" />
            <circle cx="294.12" cy="103.1" r=".533" />
            <circle cx="312.69" cy="103.01" r=".436" />
            <circle cx="331.25" cy="103.74" r=".338" />
            <circle cx="349.76" cy="105.31" r=".239" />
            <circle cx="368.17" cy="107.74" r=".143" />
            <circle cx="386.46" cy="111" r=".043" />
        </g>
        <g fill="#0F3781">
            <circle cx="-1097" cy="39.194" r="8.361" />
            <circle cx="-1082.4" cy="50.696" r="8.263" />
            <circle cx="-1067.3" cy="61.526" r="8.164" />
            <circle cx="-1051.9" cy="71.811" r="8.065" />
            <circle cx="-1036.1" cy="81.576" r="7.969" />
            <circle cx="-1019.9" cy="90.824" r="7.871" />
            <circle cx="-1003.5" cy="99.54" r="7.772" />
            <circle cx="-986.87" cy="107.71" r="7.675" />
            <circle cx="-969.92" cy="115.31" r="7.578" />
            <circle cx="-952.71" cy="122.31" r="7.479" />
            <circle cx="-935.27" cy="128.68" r="7.381" />
            <circle cx="-917.59" cy="134.39" r="7.284" />
            <circle cx="-899.7" cy="139.4" r="7.186" />
            <circle cx="-881.62" cy="143.66" r="7.088" />
            <circle cx="-863.38" cy="147.15" r="6.991" />
            <circle cx="-845" cy="149.83" r="6.892" />
            <circle cx="-826.52" cy="151.66" r="6.794" />
            <circle cx="-807.97" cy="152.6" r="6.697" />
            <circle cx="-789.4" cy="152.62" r="6.599" />
            <circle cx="-770.86" cy="151.72" r="6.501" />
            <circle cx="-752.39" cy="149.86" r="6.403" />
            <circle cx="-734.04" cy="147.02" r="6.305" />
            <circle cx="-715.89" cy="143.11" r="6.208" />
            <circle cx="-697.99" cy="138.16" r="6.109" />
            <circle cx="-680.39" cy="132.2" r="6.011" />
            <circle cx="-663.13" cy="125.34" r="5.913" />
            <circle cx="-646.21" cy="117.68" r="5.815" />
            <circle cx="-629.6" cy="109.38" r="5.718" />
            <circle cx="-613.25" cy="100.59" r="5.619" />
            <circle cx="-597.06" cy="91.511" r="5.521" />
            <circle cx="-580.94" cy="82.324" r="5.424" />
            <circle cx="-564.77" cy="73.241" r="5.326" />
            <circle cx="-548.41" cy="64.485" r="5.228" />
            <circle cx="-531.77" cy="56.29" r="5.129" />
            <circle cx="-514.74" cy="48.906" r="5.031" />
            <circle cx="-497.29" cy="42.586" r="4.934" />
            <path d="m-479.42 42.39c-2.671 0-4.838-2.166-4.838-4.836s2.167-4.836 4.838-4.836c2.669 0 4.835 2.166 4.835 4.836s-2.166 4.836-4.835 4.836z" />
            <circle cx="-461.2" cy="33.974" r="4.738" />
            <circle cx="-442.74" cy="31.938" r="4.639" />
            <circle cx="-424.18" cy="31.449" r="4.542" />
            <circle cx="-405.63" cy="32.428" r="4.444" />
            <circle cx="-387.21" cy="34.755" r="4.346" />
            <circle cx="-368.97" cy="38.284" r="4.248" />
            <circle cx="-350.98" cy="42.867" r="4.149" />
            <circle cx="-333.24" cy="48.366" r="4.052" />
            <circle cx="-315.77" cy="54.656" r="3.954" />
            <circle cx="-298.56" cy="61.633" r="3.856" />
            <circle cx="-281.6" cy="69.205" r="3.758" />
            <circle cx="-264.87" cy="77.296" r="3.66" />
            <circle cx="-248.22" cy="85.53" r="3.562" />
            <circle cx="-231.42" cy="93.45" r="3.464" />
            <circle cx="-214.46" cy="101.02" r="3.367" />
            <circle cx="-197.33" cy="108.21" r="3.27" />
            <circle cx="-180.04" cy="115" r="3.17" />
            <circle cx="-162.58" cy="121.34" r="3.073" />
            <circle cx="-144.96" cy="127.23" r="2.976" />
            <circle cx="-127.18" cy="132.6" r="2.877" />
            <circle cx="-109.25" cy="137.45" r="2.78" />
            <circle cx="-91.167" cy="141.73" r="2.682" />
            <circle cx="-72.956" cy="145.41" r="2.585" />
            <circle cx="-54.632" cy="148.46" r="2.486" />
            <circle cx="-36.209" cy="150.86" r="2.388" />
            <circle cx="-17.713" cy="152.58" r="2.291" />
            <circle cx=".836" cy="153.64" r="2.193" />
            <circle cx="19.409" cy="154.02" r="2.096" />
            <circle cx="37.985" cy="153.74" r="1.998" />
            <circle cx="56.54" cy="152.83" r="1.899" />
            <circle cx="75.063" cy="151.33" r="1.801" />
            <circle cx="93.531" cy="149.3" r="1.704" />
            <circle cx="111.94" cy="146.8" r="1.605" />
            <circle cx="130.3" cy="143.93" r="1.508" />
            <circle cx="148.6" cy="140.78" r="1.411" />
            <circle cx="166.88" cy="137.43" r="1.313" />
            <circle cx="185.13" cy="134.01" r="1.215" />
            <circle cx="203.4" cy="130.62" r="1.117" />
            <circle cx="221.69" cy="127.38" r="1.019" />
            <circle cx="240.02" cy="124.41" r=".921" />
            <circle cx="258.42" cy="121.83" r=".823" />
            <circle cx="276.87" cy="119.74" r=".726" />
            <circle cx="295.38" cy="118.24" r=".629" />
            <circle cx="313.94" cy="117.44" r=".53" />
            <circle cx="332.51" cy="117.39" r=".432" />
            <circle cx="351.07" cy="118.15" r=".334" />
            <circle cx="369.57" cy="119.76" r=".237" />
            <circle cx="387.98" cy="122.22" r=".14" />
            <circle cx="406.26" cy="125.52" r=".041" />
        </g>
        <g fill="#113981">
            <circle cx="-1077.7" cy="53.591" r="8.36" />
            <circle cx="-1063.2" cy="65.137" r="8.263" />
            <circle cx="-1048.1" cy="76.008" r="8.164" />
            <circle cx="-1032.7" cy="86.332" r="8.066" />
            <circle cx="-1016.9" cy="96.132" r="7.969" />
            <circle cx="-1000.8" cy="105.41" r="7.871" />
            <circle cx="-984.43" cy="114.16" r="7.772" />
            <circle cx="-967.76" cy="122.35" r="7.675" />
            <circle cx="-950.82" cy="129.97" r="7.577" />
            <circle cx="-933.62" cy="136.98" r="7.479" />
            <circle cx="-916.17" cy="143.36" r="7.381" />
            <circle cx="-898.49" cy="149.06" r="7.284" />
            <circle cx="-880.6" cy="154.06" r="7.186" />
            <circle cx="-862.52" cy="158.31" r="7.088" />
            <circle cx="-844.27" cy="161.77" r="6.99" />
            <circle cx="-825.89" cy="164.41" r="6.891" />
            <circle cx="-807.4" cy="166.18" r="6.794" />
            <circle cx="-788.85" cy="167.07" r="6.696" />
            <circle cx="-770.28" cy="167.02" r="6.599" />
            <circle cx="-751.75" cy="166.04" r="6.5" />
            <circle cx="-733.28" cy="164.09" r="6.402" />
            <circle cx="-714.95" cy="161.16" r="6.304" />
            <circle cx="-696.81" cy="157.19" r="6.207" />
            <circle cx="-678.92" cy="152.19" r="6.108" />
            <path d="m-661.33 152.23c-3.318 0-6.01-2.689-6.01-6.008 0-3.322 2.691-6.013 6.01-6.013 3.32 0 6.012 2.69 6.012 6.013 0 3.318-2.692 6.008-6.012 6.008z" />
            <circle cx="-644.07" cy="139.37" r="5.912" />
            <circle cx="-627.13" cy="131.75" r="5.814" />
            <circle cx="-610.49" cy="123.5" r="5.717" />
            <circle cx="-594.1" cy="114.79" r="5.619" />
            <circle cx="-577.87" cy="105.8" r="5.521" />
            <circle cx="-561.69" cy="96.709" r="5.422" />
            <circle cx="-545.46" cy="87.73" r="5.325" />
            <circle cx="-529.05" cy="79.079" r="5.227" />
            <circle cx="-512.36" cy="70.987" r="5.128" />
            <circle cx="-495.29" cy="63.696" r="5.03" />
            <circle cx="-477.81" cy="57.452" r="4.932" />
            <path d="m-459.92 57.309c-2.671 0-4.836-2.165-4.836-4.835 0-2.669 2.165-4.834 4.836-4.834 2.668 0 4.834 2.165 4.834 4.834 0 2.67-2.166 4.835-4.834 4.835z" />
            <circle cx="-441.7" cy="48.926" r="4.736" />
            <circle cx="-423.24" cy="46.897" r="4.638" />
            <circle cx="-404.68" cy="46.392" r="4.54" />
            <circle cx="-386.13" cy="47.342" r="4.442" />
            <circle cx="-367.7" cy="49.627" r="4.344" />
            <circle cx="-349.46" cy="53.11" r="4.246" />
            <circle cx="-331.45" cy="57.644" r="4.148" />
            <circle cx="-313.7" cy="63.096" r="4.05" />
            <circle cx="-296.21" cy="69.341" r="3.952" />
            <circle cx="-278.98" cy="76.276" r="3.854" />
            <circle cx="-262" cy="83.811" r="3.756" />
            <circle cx="-245.26" cy="91.867" r="3.658" />
            <circle cx="-228.59" cy="100.06" r="3.56" />
            <circle cx="-211.77" cy="107.93" r="3.462" />
            <circle cx="-194.78" cy="115.45" r="3.365" />
            <circle cx="-177.64" cy="122.6" r="3.267" />
            <circle cx="-160.33" cy="129.34" r="3.168" />
            <circle cx="-142.86" cy="135.65" r="3.071" />
            <circle cx="-125.23" cy="141.49" r="2.974" />
            <circle cx="-107.43" cy="146.83" r="2.875" />
            <circle cx="-89.49" cy="151.64" r="2.778" />
            <circle cx="-71.403" cy="155.88" r="2.68" />
            <circle cx="-53.187" cy="159.53" r="2.583" />
            <circle cx="-34.857" cy="162.56" r="2.484" />
            <circle cx="-16.432" cy="164.93" r="2.386" />
            <circle cx="2.066" cy="166.64" r="2.289" />
            <circle cx="20.616" cy="167.68" r="2.191" />
            <circle cx="39.189" cy="168.05" r="2.094" />
            <circle cx="57.766" cy="167.76" r="1.996" />
            <circle cx="76.32" cy="166.85" r="1.897" />
            <circle cx="94.842" cy="165.35" r="1.799" />
            <circle cx="113.31" cy="163.32" r="1.701" />
            <circle cx="131.72" cy="160.84" r="1.603" />
            <circle cx="150.08" cy="157.98" r="1.506" />
            <circle cx="168.39" cy="154.83" r="1.408" />
            <circle cx="186.66" cy="151.51" r="1.311" />
            <circle cx="204.92" cy="148.11" r="1.212" />
            <circle cx="223.19" cy="144.74" r="1.114" />
            <circle cx="241.49" cy="141.54" r="1.017" />
            <circle cx="259.83" cy="138.6" r=".919" />
            <circle cx="278.23" cy="136.05" r=".821" />
            <circle cx="296.69" cy="134" r=".723" />
            <circle cx="315.2" cy="132.54" r=".626" />
            <circle cx="333.76" cy="131.78" r=".527" />
            <circle cx="352.33" cy="131.77" r=".43" />
            <circle cx="370.89" cy="132.57" r=".332" />
            <circle cx="389.39" cy="134.21" r=".234" />
            <circle cx="407.8" cy="136.7" r=".137" />
            <circle cx="426.07" cy="140.02" r=".038" />
        </g>
        <g fill="#143B82">
            <circle cx="-1058.4" cy="67.989" r="8.36" />
            <circle cx="-1043.9" cy="79.578" r="8.263" />
            <circle cx="-1028.9" cy="90.49" r="8.164" />
            <circle cx="-1013.5" cy="100.85" r="8.065" />
            <circle cx="-997.75" cy="110.69" r="7.969" />
            <circle cx="-981.68" cy="120" r="7.871" />
            <circle cx="-965.31" cy="128.77" r="7.772" />
            <circle cx="-948.65" cy="136.99" r="7.675" />
            <circle cx="-931.72" cy="144.63" r="7.577" />
            <circle cx="-914.52" cy="151.65" r="7.479" />
            <circle cx="-897.08" cy="158.04" r="7.38" />
            <circle cx="-879.4" cy="163.74" r="7.283" />
            <circle cx="-861.5" cy="168.73" r="7.185" />
            <circle cx="-843.42" cy="172.96" r="7.087" />
            <circle cx="-825.16" cy="176.39" r="6.99" />
            <circle cx="-806.77" cy="178.99" r="6.891" />
            <circle cx="-788.28" cy="180.72" r="6.793" />
            <circle cx="-769.73" cy="181.54" r="6.696" />
            <circle cx="-751.17" cy="181.42" r="6.598" />
            <circle cx="-732.63" cy="180.36" r="6.5" />
            <circle cx="-714.18" cy="178.32" r="6.401" />
            <circle cx="-695.86" cy="175.3" r="6.304" />
            <circle cx="-677.74" cy="171.26" r="6.206" />
            <circle cx="-659.86" cy="166.23" r="6.107" />
            <circle cx="-642.27" cy="160.24" r="6.009" />
            <circle cx="-625.01" cy="153.4" r="5.911" />
            <circle cx="-608.05" cy="145.81" r="5.814" />
            <circle cx="-591.39" cy="137.62" r="5.716" />
            <circle cx="-574.96" cy="128.99" r="5.618" />
            <circle cx="-558.67" cy="120.08" r="5.519" />
            <circle cx="-542.44" cy="111.09" r="5.422" />
            <circle cx="-526.15" cy="102.22" r="5.324" />
            <circle cx="-509.69" cy="93.674" r="5.226" />
            <circle cx="-492.95" cy="85.683" r="5.127" />
            <circle cx="-475.84" cy="78.485" r="5.029" />
            <circle cx="-458.33" cy="72.318" r="4.931" />
            <path d="m-440.43 72.229c-2.67 0-4.835-2.165-4.835-4.833s2.165-4.833 4.835-4.833c2.667 0 4.832 2.165 4.832 4.833s-2.165 4.833-4.832 4.833z" />
            <circle cx="-422.2" cy="63.878" r="4.735" />
            <circle cx="-403.74" cy="61.855" r="4.637" />
            <circle cx="-385.18" cy="61.336" r="4.539" />
            <circle cx="-366.63" cy="62.255" r="4.441" />
            <circle cx="-348.19" cy="64.5" r="4.343" />
            <circle cx="-329.94" cy="67.935" r="4.244" />
            <circle cx="-311.92" cy="72.421" r="4.146" />
            <circle cx="-294.16" cy="77.826" r="4.049" />
            <circle cx="-276.65" cy="84.026" r="3.951" />
            <circle cx="-259.4" cy="90.92" r="3.852" />
            <circle cx="-242.41" cy="98.417" r="3.754" />
            <circle cx="-225.66" cy="106.44" r="3.655" />
            <circle cx="-208.96" cy="114.58" r="3.558" />
            <circle cx="-192.12" cy="122.41" r="3.461" />
            <circle cx="-175.11" cy="129.88" r="3.363" />
            <circle cx="-157.95" cy="136.98" r="3.265" />
            <circle cx="-140.62" cy="143.68" r="3.167" />
            <circle cx="-123.14" cy="149.95" r="3.069" />
            <circle cx="-105.49" cy="155.75" r="2.972" />
            <circle cx="-87.687" cy="161.06" r="2.873" />
            <circle cx="-69.733" cy="165.83" r="2.776" />
            <circle cx="-51.64" cy="170.04" r="2.678" />
            <circle cx="-33.417" cy="173.66" r="2.58" />
            <circle cx="-15.083" cy="176.66" r="2.482" />
            <circle cx="3.345" cy="179.01" r="2.384" />
            <circle cx="21.845" cy="180.7" r="2.286" />
            <circle cx="40.396" cy="181.72" r="2.188" />
            <circle cx="58.97" cy="182.08" r="2.091" />
            <circle cx="77.546" cy="181.78" r="1.993" />
            <circle cx="96.101" cy="180.87" r="1.895" />
            <circle cx="114.62" cy="179.37" r="1.797" />
            <circle cx="133.09" cy="177.34" r="1.699" />
            <circle cx="151.5" cy="174.87" r="1.601" />
            <circle cx="169.86" cy="172.02" r="1.504" />
            <circle cx="188.17" cy="168.89" r="1.406" />
            <circle cx="206.45" cy="165.58" r="1.308" />
            <circle cx="224.72" cy="162.21" r="1.209" />
            <circle cx="242.99" cy="158.87" r="1.112" />
            <circle cx="261.29" cy="155.69" r="1.014" />
            <circle cx="279.64" cy="152.78" r=".916" />
            <circle cx="298.04" cy="150.27" r=".818" />
            <circle cx="316.5" cy="148.25" r=".72" />
            <path d="m335.02 147.46c-0.346 0-0.625-0.278-0.625-0.624 0-0.344 0.279-0.622 0.625-0.622 0.342 0 0.62 0.278 0.62 0.622 1e-3 0.346-0.278 0.624-0.62 0.624z" />
            <circle cx="353.58" cy="146.11" r=".524" />
            <circle cx="372.15" cy="146.14" r=".427" />
            <circle cx="390.71" cy="146.98" r=".329" />
            <path d="m409.21 148.89c-0.129 0-0.232-0.103-0.232-0.23s0.104-0.231 0.232-0.231c0.125 0 0.229 0.104 0.229 0.231s-0.104 0.23-0.229 0.23z" />
            <circle cx="427.61" cy="151.18" r=".134" />
            <circle cx="445.88" cy="154.54" r=".035" />
        </g>
        <g fill="#163D82">
            <circle cx="-1039.2" cy="82.387" r="8.36" />
            <circle cx="-1024.7" cy="94.019" r="8.262" />
            <circle cx="-1009.7" cy="104.97" r="8.164" />
            <circle cx="-994.32" cy="115.37" r="8.065" />
            <circle cx="-978.59" cy="125.24" r="7.969" />
            <circle cx="-962.54" cy="134.59" r="7.871" />
            <circle cx="-946.19" cy="143.39" r="7.772" />
            <circle cx="-929.54" cy="151.63" r="7.674" />
            <circle cx="-912.62" cy="159.28" r="7.577" />
            <circle cx="-895.43" cy="166.32" r="7.479" />
            <circle cx="-877.98" cy="172.71" r="7.38" />
            <circle cx="-860.3" cy="178.42" r="7.283" />
            <circle cx="-842.41" cy="183.39" r="7.185" />
            <circle cx="-824.32" cy="187.6" r="7.087" />
            <circle cx="-806.06" cy="191.01" r="6.989" />
            <circle cx="-787.66" cy="193.57" r="6.891" />
            <circle cx="-769.17" cy="195.25" r="6.792" />
            <circle cx="-750.61" cy="196.01" r="6.695" />
            <circle cx="-732.05" cy="195.82" r="6.598" />
            <circle cx="-713.52" cy="194.68" r="6.499" />
            <circle cx="-695.07" cy="192.55" r="6.401" />
            <circle cx="-676.77" cy="189.44" r="6.303" />
            <circle cx="-658.66" cy="185.34" r="6.205" />
            <circle cx="-640.8" cy="180.26" r="6.107" />
            <circle cx="-623.22" cy="174.26" r="6.009" />
            <circle cx="-605.94" cy="167.43" r="5.91" />
            <circle cx="-588.97" cy="159.88" r="5.813" />
            <circle cx="-572.28" cy="151.74" r="5.715" />
            <circle cx="-555.81" cy="143.18" r="5.616" />
            <circle cx="-539.48" cy="134.37" r="5.518" />
            <circle cx="-523.19" cy="125.48" r="5.42" />
            <circle cx="-506.85" cy="116.71" r="5.323" />
            <circle cx="-490.33" cy="108.27" r="5.225" />
            <circle cx="-473.53" cy="100.38" r="5.125" />
            <circle cx="-456.39" cy="93.275" r="5.027" />
            <circle cx="-438.86" cy="87.184" r="4.929" />
            <circle cx="-420.94" cy="82.316" r="4.832" />
            <circle cx="-402.7" cy="78.829" r="4.734" />
            <circle cx="-384.24" cy="76.813" r="4.635" />
            <circle cx="-365.68" cy="76.279" r="4.537" />
            <circle cx="-347.12" cy="77.167" r="4.439" />
            <circle cx="-328.68" cy="79.371" r="4.341" />
            <circle cx="-310.43" cy="82.761" r="4.242" />
            <path d="m-292.39 91.343c-2.291 0-4.146-1.855-4.146-4.145s1.855-4.145 4.146-4.145c2.287 0 4.143 1.855 4.143 4.145s-1.855 4.145-4.143 4.145z" />
            <circle cx="-274.61" cy="92.556" r="4.047" />
            <circle cx="-257.09" cy="98.711" r="3.948" />
            <circle cx="-239.83" cy="105.56" r="3.851" />
            <circle cx="-222.82" cy="113.02" r="3.752" />
            <circle cx="-206.05" cy="121.01" r="3.654" />
            <circle cx="-189.33" cy="129.1" r="3.556" />
            <circle cx="-172.46" cy="136.88" r="3.458" />
            <circle cx="-155.44" cy="144.32" r="3.361" />
            <circle cx="-138.26" cy="151.37" r="3.263" />
            <circle cx="-120.92" cy="158.03" r="3.165" />
            <circle cx="-103.41" cy="164.25" r="3.067" />
            <circle cx="-85.754" cy="170.01" r="2.97" />
            <circle cx="-67.939" cy="175.28" r="2.871" />
            <circle cx="-49.977" cy="180.02" r="2.774" />
            <circle cx="-31.875" cy="184.2" r="2.676" />
            <circle cx="-13.646" cy="187.78" r="2.578" />
            <circle cx="4.69" cy="190.76" r="2.48" />
            <circle cx="23.122" cy="193.08" r="2.381" />
            <circle cx="41.624" cy="194.76" r="2.284" />
            <circle cx="60.176" cy="195.76" r="2.186" />
            <circle cx="78.749" cy="196.11" r="2.089" />
            <circle cx="97.325" cy="195.8" r="1.991" />
            <circle cx="115.88" cy="194.88" r="1.892" />
            <circle cx="134.4" cy="193.38" r="1.794" />
            <circle cx="152.87" cy="191.37" r="1.697" />
            <circle cx="171.29" cy="188.9" r="1.598" />
            <circle cx="189.64" cy="186.06" r="1.501" />
            <circle cx="207.96" cy="182.95" r="1.403" />
            <circle cx="226.24" cy="179.66" r="1.306" />
            <circle cx="244.51" cy="176.3" r="1.207" />
            <circle cx="262.79" cy="172.99" r="1.109" />
            <circle cx="281.1" cy="169.84" r="1.012" />
            <circle cx="299.44" cy="166.97" r=".914" />
            <circle cx="317.85" cy="164.49" r=".815" />
            <circle cx="336.32" cy="162.51" r=".718" />
            <circle cx="354.84" cy="161.14" r=".62" />
            <circle cx="373.4" cy="160.45" r=".521" />
            <circle cx="391.98" cy="160.52" r=".424" />
            <circle cx="410.53" cy="161.4" r=".326" />
            <circle cx="429.02" cy="163.11" r=".229" />
            <circle cx="447.42" cy="165.66" r=".131" />
            <circle cx="465.69" cy="169.04" r=".032" />
        </g>
        <g fill="#183F82">
            <circle cx="-1019.9" cy="96.785" r="8.36" />
            <circle cx="-1005.5" cy="108.46" r="8.263" />
            <circle cx="-990.51" cy="119.46" r="8.164" />
            <circle cx="-975.15" cy="129.89" r="8.065" />
            <circle cx="-959.44" cy="139.8" r="7.969" />
            <circle cx="-943.4" cy="149.18" r="7.87" />
            <circle cx="-927.06" cy="158" r="7.771" />
            <circle cx="-910.43" cy="166.27" r="7.674" />
            <circle cx="-893.52" cy="173.94" r="7.576" />
            <circle cx="-876.33" cy="181" r="7.479" />
            <circle cx="-858.89" cy="187.39" r="7.38" />
            <circle cx="-841.21" cy="193.09" r="7.283" />
            <circle cx="-823.31" cy="198.06" r="7.185" />
            <circle cx="-805.22" cy="202.25" r="7.086" />
            <circle cx="-786.95" cy="205.62" r="6.988" />
            <circle cx="-768.55" cy="208.15" r="6.891" />
            <circle cx="-750.05" cy="209.78" r="6.792" />
            <circle cx="-731.49" cy="210.48" r="6.695" />
            <circle cx="-712.93" cy="210.22" r="6.597" />
            <circle cx="-694.4" cy="209" r="6.499" />
            <circle cx="-675.97" cy="206.78" r="6.4" />
            <circle cx="-657.68" cy="203.59" r="6.302" />
            <circle cx="-639.59" cy="199.42" r="6.205" />
            <circle cx="-621.73" cy="194.3" r="6.106" />
            <circle cx="-604.16" cy="188.28" r="6.008" />
            <circle cx="-586.88" cy="181.46" r="5.909" />
            <circle cx="-569.9" cy="173.94" r="5.812" />
            <circle cx="-553.17" cy="165.87" r="5.714" />
            <circle cx="-536.66" cy="157.38" r="5.616" />
            <circle cx="-520.28" cy="148.65" r="5.518" />
            <circle cx="-503.94" cy="139.86" r="5.419" />
            <circle cx="-487.54" cy="131.2" r="5.321" />
            <circle cx="-470.96" cy="122.86" r="5.224" />
            <circle cx="-454.12" cy="115.08" r="5.125" />
            <circle cx="-436.94" cy="108.06" r="5.026" />
            <circle cx="-419.38" cy="102.05" r="4.928" />
            <circle cx="-401.44" cy="97.237" r="4.831" />
            <circle cx="-383.2" cy="93.781" r="4.732" />
            <circle cx="-364.74" cy="91.772" r="4.634" />
            <circle cx="-346.18" cy="91.223" r="4.535" />
            <circle cx="-327.62" cy="92.081" r="4.438" />
            <circle cx="-309.18" cy="94.243" r="4.339" />
            <circle cx="-290.91" cy="97.586" r="4.241" />
            <path d="m-272.86 106.12c-2.29 0-4.145-1.855-4.145-4.143s1.854-4.143 4.145-4.143c2.286 0 4.142 1.854 4.142 4.143-1e-3 2.287-1.856 4.143-4.142 4.143z" />
            <circle cx="-255.07" cy="107.29" r="4.045" />
            <circle cx="-237.53" cy="113.4" r="3.947" />
            <circle cx="-220.26" cy="120.21" r="3.848" />
            <circle cx="-203.23" cy="127.63" r="3.75" />
            <circle cx="-186.44" cy="135.58" r="3.651" />
            <circle cx="-169.7" cy="143.63" r="3.554" />
            <circle cx="-152.81" cy="151.36" r="3.457" />
            <circle cx="-135.77" cy="158.75" r="3.359" />
            <circle cx="-118.57" cy="165.76" r="3.261" />
            <circle cx="-101.21" cy="172.37" r="3.162" />
            <circle cx="-83.691" cy="178.56" r="3.065" />
            <circle cx="-66.019" cy="184.28" r="2.967" />
            <circle cx="-48.192" cy="189.5" r="2.869" />
            <circle cx="-30.221" cy="194.21" r="2.772" />
            <circle cx="-12.111" cy="198.35" r="2.673" />
            <circle cx="6.123" cy="201.91" r="2.575" />
            <circle cx="24.465" cy="204.86" r="2.478" />
            <circle cx="42.899" cy="207.16" r="2.378" />
            <circle cx="61.403" cy="208.81" r="2.281" />
            <circle cx="79.956" cy="209.8" r="2.184" />
            <circle cx="98.529" cy="210.14" r="2.086" />
            <circle cx="117.1" cy="209.83" r="1.988" />
            <circle cx="135.66" cy="208.9" r="1.89" />
            <circle cx="154.18" cy="207.4" r="1.792" />
            <circle cx="172.65" cy="205.39" r="1.694" />
            <circle cx="191.07" cy="202.93" r="1.596" />
            <circle cx="209.43" cy="200.11" r="1.499" />
            <circle cx="227.74" cy="197.01" r="1.4" />
            <circle cx="246.03" cy="193.74" r="1.303" />
            <circle cx="264.3" cy="190.4" r="1.205" />
            <circle cx="282.58" cy="187.12" r="1.106" />
            <circle cx="300.9" cy="184" r="1.009" />
            <circle cx="319.25" cy="181.16" r=".911" />
            <circle cx="337.67" cy="178.71" r=".813" />
            <circle cx="356.14" cy="176.77" r=".715" />
            <circle cx="374.66" cy="175.43" r=".618" />
            <circle cx="393.22" cy="174.78" r=".519" />
            <circle cx="411.8" cy="174.9" r=".421" />
            <circle cx="430.35" cy="175.81" r=".323" />
            <circle cx="448.84" cy="177.56" r=".226" />
            <circle cx="467.23" cy="180.14" r=".128" />
            <circle cx="485.5" cy="183.55" r=".029" />
        </g>
        <g fill="#1A4182">
            <circle cx="-1000.6" cy="111.18" r="8.36" />
            <circle cx="-986.24" cy="122.9" r="8.263" />
            <circle cx="-971.31" cy="133.94" r="8.164" />
            <circle cx="-955.97" cy="144.42" r="8.065" />
            <circle cx="-940.28" cy="154.36" r="7.968" />
            <circle cx="-924.27" cy="163.76" r="7.87" />
            <circle cx="-907.94" cy="172.62" r="7.771" />
            <circle cx="-891.32" cy="180.91" r="7.674" />
            <circle cx="-874.41" cy="188.6" r="7.576" />
            <circle cx="-857.23" cy="195.67" r="7.479" />
            <circle cx="-839.8" cy="202.06" r="7.379" />
            <circle cx="-822.12" cy="207.76" r="7.282" />
            <circle cx="-804.21" cy="212.72" r="7.184" />
            <circle cx="-786.11" cy="216.9" r="7.086" />
            <circle cx="-767.84" cy="220.24" r="6.988" />
            <circle cx="-749.44" cy="222.73" r="6.89" />
            <circle cx="-730.93" cy="224.31" r="6.792" />
            <circle cx="-712.37" cy="224.95" r="6.694" />
            <circle cx="-693.81" cy="224.62" r="6.597" />
            <circle cx="-675.29" cy="223.32" r="6.498" />
            <circle cx="-656.86" cy="221.01" r="6.4" />
            <circle cx="-638.59" cy="217.73" r="6.302" />
            <circle cx="-620.51" cy="213.5" r="6.204" />
            <circle cx="-602.67" cy="208.34" r="6.105" />
            <circle cx="-585.1" cy="202.3" r="6.007" />
            <circle cx="-567.82" cy="195.5" r="5.909" />
            <circle cx="-550.82" cy="188.01" r="5.812" />
            <circle cx="-534.07" cy="179.99" r="5.713" />
            <circle cx="-517.52" cy="171.58" r="5.614" />
            <circle cx="-501.09" cy="162.94" r="5.516" />
            <circle cx="-484.69" cy="154.25" r="5.418" />
            <circle cx="-468.23" cy="145.69" r="5.32" />
            <circle cx="-451.6" cy="137.46" r="5.222" />
            <circle cx="-434.71" cy="129.78" r="5.123" />
            <circle cx="-417.49" cy="122.85" r="5.025" />
            <circle cx="-399.9" cy="116.92" r="4.927" />
            <path d="m-381.95 116.99c-2.668 0-4.831-2.163-4.831-4.829s2.163-4.829 4.831-4.829c2.665 0 4.828 2.163 4.828 4.829s-2.163 4.829-4.828 4.829z" />
            <circle cx="-363.7" cy="108.73" r="4.731" />
            <circle cx="-345.24" cy="106.73" r="4.632" />
            <circle cx="-326.68" cy="106.17" r="4.534" />
            <path d="m-308.12 111.43c-2.452 0-4.438-1.987-4.438-4.437 0-2.451 1.986-4.437 4.438-4.437 2.448 0 4.435 1.985 4.435 4.437-1e-3 2.45-1.987 4.437-4.435 4.437z" />
            <circle cx="-289.67" cy="109.12" r="4.338" />
            <circle cx="-271.4" cy="112.41" r="4.239" />
            <circle cx="-253.34" cy="116.75" r="4.141" />
            <circle cx="-235.53" cy="122.02" r="4.043" />
            <circle cx="-217.97" cy="128.08" r="3.945" />
            <circle cx="-200.68" cy="134.85" r="3.847" />
            <circle cx="-183.63" cy="142.23" r="3.749" />
            <circle cx="-166.83" cy="150.15" r="3.65" />
            <circle cx="-150.07" cy="158.15" r="3.552" />
            <circle cx="-133.16" cy="165.84" r="3.455" />
            <circle cx="-116.1" cy="173.18" r="3.357" />
            <circle cx="-98.876" cy="180.15" r="3.259" />
            <circle cx="-81.501" cy="186.72" r="3.161" />
            <circle cx="-63.969" cy="192.86" r="3.063" />
            <circle cx="-46.283" cy="198.54" r="2.965" />
            <circle cx="-28.445" cy="203.73" r="2.867" />
            <circle cx="-10.464" cy="208.4" r="2.77" />
            <circle cx="7.652" cy="212.51" r="2.671" />
            <circle cx="25.894" cy="216.04" r="2.573" />
            <circle cx="44.239" cy="218.96" r="2.475" />
            <circle cx="62.677" cy="221.24" r="2.376" />
            <circle cx="81.183" cy="222.87" r="2.279" />
            <circle cx="99.735" cy="223.85" r="2.182" />
            <circle cx="118.31" cy="224.17" r="2.083" />
            <circle cx="136.89" cy="223.85" r="1.985" />
            <circle cx="155.44" cy="222.92" r="1.887" />
            <circle cx="173.96" cy="221.42" r="1.79" />
            <circle cx="192.43" cy="219.42" r="1.692" />
            <circle cx="210.85" cy="216.96" r="1.594" />
            <circle cx="229.21" cy="214.15" r="1.497" />
            <circle cx="247.53" cy="211.07" r="1.398" />
            <circle cx="265.82" cy="207.82" r="1.3" />
            <circle cx="284.1" cy="204.5" r="1.202" />
            <circle cx="302.38" cy="201.24" r="1.104" />
            <circle cx="320.7" cy="198.15" r="1.006" />
            <circle cx="339.06" cy="195.34" r=".909" />
            <circle cx="357.48" cy="192.93" r=".81" />
            <circle cx="375.96" cy="191.03" r=".712" />
            <circle cx="394.48" cy="189.73" r=".615" />
            <circle cx="413.05" cy="189.12" r=".517" />
            <circle cx="431.62" cy="189.27" r=".419" />
            <circle cx="450.17" cy="190.23" r=".321" />
            <circle cx="468.66" cy="192.01" r=".223" />
            <circle cx="487.05" cy="194.63" r=".125" />
            <circle cx="505.3" cy="198.06" r=".027" />
        </g>
        <g fill="#1D4382">
            <circle cx="-981.38" cy="125.58" r="8.36" />
            <circle cx="-967.01" cy="137.34" r="8.262" />
            <circle cx="-952.1" cy="148.42" r="8.163" />
            <circle cx="-936.8" cy="158.93" r="8.065" />
            <circle cx="-921.13" cy="168.91" r="7.968" />
            <circle cx="-905.13" cy="178.35" r="7.87" />
            <circle cx="-888.82" cy="187.24" r="7.771" />
            <circle cx="-872.21" cy="195.55" r="7.673" />
            <circle cx="-855.31" cy="203.26" r="7.576" />
            <circle cx="-838.14" cy="210.34" r="7.479" />
            <circle cx="-820.7" cy="216.74" r="7.379" />
            <circle cx="-803.02" cy="222.44" r="7.282" />
            <circle cx="-785.12" cy="227.39" r="7.184" />
            <circle cx="-767.01" cy="231.54" r="7.086" />
            <circle cx="-748.74" cy="234.86" r="6.988" />
            <circle cx="-730.32" cy="237.31" r="6.89" />
            <circle cx="-711.82" cy="238.84" r="6.791" />
            <circle cx="-693.25" cy="239.42" r="6.693" />
            <circle cx="-674.69" cy="239.02" r="6.596" />
            <circle cx="-656.17" cy="237.64" r="6.498" />
            <circle cx="-637.76" cy="235.24" r="6.399" />
            <circle cx="-619.5" cy="231.87" r="6.301" />
            <circle cx="-601.44" cy="227.58" r="6.203" />
            <circle cx="-583.6" cy="222.37" r="6.105" />
            <circle cx="-566.04" cy="216.33" r="6.006" />
            <circle cx="-548.75" cy="209.53" r="5.908" />
            <circle cx="-531.74" cy="202.08" r="5.811" />
            <circle cx="-514.96" cy="194.11" r="5.713" />
            <circle cx="-498.37" cy="185.78" r="5.613" />
            <path d="m-481.89 182.74c-3.048 0-5.517-2.469-5.517-5.517 0-3.044 2.469-5.514 5.517-5.514 3.044 0 5.514 2.47 5.514 5.514 0 3.048-2.47 5.517-5.514 5.517z" />
            <circle cx="-465.44" cy="168.63" r="5.417" />
            <circle cx="-448.92" cy="160.18" r="5.319" />
            <circle cx="-432.24" cy="152.05" r="5.221" />
            <circle cx="-415.3" cy="144.47" r="5.122" />
            <circle cx="-398.04" cy="137.64" r="5.024" />
            <circle cx="-380.42" cy="131.78" r="4.926" />
            <path d="m-362.46 131.91c-2.667 0-4.829-2.163-4.829-4.827 0-2.666 2.162-4.828 4.829-4.828 2.664 0 4.826 2.162 4.826 4.828 0 2.664-2.162 4.827-4.826 4.827z" />
            <circle cx="-344.2" cy="123.68" r="4.729" />
            <circle cx="-325.74" cy="121.69" r="4.631" />
            <circle cx="-307.18" cy="121.11" r="4.532" />
            <path d="m-288.62 126.34c-2.45 0-4.437-1.986-4.437-4.436s1.986-4.434 4.437-4.434c2.447 0 4.433 1.984 4.433 4.434s-1.986 4.436-4.433 4.436z" />
            <circle cx="-270.16" cy="123.99" r="4.336" />
            <circle cx="-251.88" cy="127.24" r="4.238" />
            <path d="m-233.81 135.67c-2.288 0-4.142-1.853-4.142-4.139 0-2.287 1.854-4.14 4.142-4.14 2.284 0 4.138 1.853 4.138 4.14s-1.853 4.139-4.138 4.139z" />
            <circle cx="-215.98" cy="136.75" r="4.042" />
            <circle cx="-198.42" cy="142.77" r="3.943" />
            <circle cx="-181.1" cy="149.49" r="3.845" />
            <circle cx="-164.04" cy="156.84" r="3.747" />
            <circle cx="-147.22" cy="164.72" r="3.648" />
            <circle cx="-130.44" cy="172.68" r="3.55" />
            <circle cx="-113.5" cy="180.32" r="3.453" />
            <circle cx="-96.422" cy="187.61" r="3.355" />
            <circle cx="-79.185" cy="194.54" r="3.257" />
            <circle cx="-61.793" cy="201.06" r="3.159" />
            <circle cx="-44.246" cy="207.16" r="3.061" />
            <circle cx="-26.547" cy="212.8" r="2.963" />
            <circle cx="-8.698" cy="217.95" r="2.865" />
            <circle cx="9.292" cy="222.58" r="2.768" />
            <circle cx="27.417" cy="226.66" r="2.669" />
            <circle cx="45.663" cy="230.16" r="2.571" />
            <circle cx="64.014" cy="233.06" r="2.473" />
            <circle cx="82.454" cy="235.32" r="2.374" />
            <circle cx="100.96" cy="236.93" r="2.277" />
            <circle cx="119.52" cy="237.89" r="2.18" />
            <circle cx="138.09" cy="238.2" r="2.082" />
            <circle cx="156.67" cy="237.87" r="1.983" />
            <circle cx="175.22" cy="236.94" r="1.885" />
            <circle cx="193.74" cy="235.44" r="1.787" />
            <circle cx="212.21" cy="233.44" r="1.689" />
            <circle cx="230.63" cy="231" r="1.591" />
            <circle cx="248.99" cy="228.19" r="1.494" />
            <circle cx="267.31" cy="225.13" r="1.395" />
            <circle cx="285.6" cy="221.89" r="1.298" />
            <circle cx="303.89" cy="218.6" r="1.199" />
            <circle cx="322.18" cy="215.37" r="1.102" />
            <circle cx="340.5" cy="212.3" r="1.004" />
            <circle cx="358.87" cy="209.53" r=".906" />
            <circle cx="377.29" cy="207.15" r=".808" />
            <circle cx="395.77" cy="205.28" r=".71" />
            <circle cx="414.3" cy="204.02" r=".612" />
            <circle cx="432.87" cy="203.46" r=".514" />
            <circle cx="451.44" cy="203.65" r=".416" />
            <circle cx="469.99" cy="204.64" r=".318" />
            <circle cx="488.48" cy="206.46" r=".22" />
            <circle cx="506.86" cy="209.11" r=".123" />
            <circle cx="525.11" cy="212.57" r=".024" />
        </g>
        <g fill="#1F4582">
            <circle cx="-962.12" cy="139.98" r="8.36" />
            <circle cx="-947.78" cy="151.78" r="8.262" />
            <circle cx="-932.9" cy="162.9" r="8.164" />
            <circle cx="-917.62" cy="173.46" r="8.065" />
            <circle cx="-901.98" cy="183.47" r="7.968" />
            <circle cx="-886" cy="192.94" r="7.87" />
            <circle cx="-869.7" cy="201.85" r="7.771" />
            <circle cx="-853.1" cy="210.19" r="7.673" />
            <circle cx="-836.21" cy="217.92" r="7.576" />
            <circle cx="-819.04" cy="225.01" r="7.478" />
            <circle cx="-801.61" cy="231.42" r="7.379" />
            <circle cx="-783.93" cy="237.12" r="7.282" />
            <circle cx="-766.02" cy="242.05" r="7.184" />
            <circle cx="-747.91" cy="246.19" r="7.085" />
            <circle cx="-729.63" cy="249.48" r="6.987" />
            <circle cx="-711.21" cy="251.88" r="6.889" />
            <circle cx="-692.7" cy="253.37" r="6.791" />
            <circle cx="-674.13" cy="253.89" r="6.693" />
            <circle cx="-655.57" cy="253.42" r="6.596" />
            <circle cx="-637.06" cy="251.96" r="6.497" />
            <circle cx="-618.66" cy="249.47" r="6.398" />
            <circle cx="-600.41" cy="246.02" r="6.3" />
            <circle cx="-582.36" cy="241.65" r="6.202" />
            <circle cx="-564.54" cy="236.41" r="6.104" />
            <circle cx="-546.98" cy="230.35" r="6.005" />
            <circle cx="-529.69" cy="223.56" r="5.907" />
            <circle cx="-512.66" cy="216.14" r="5.81" />
            <circle cx="-495.85" cy="208.24" r="5.712" />
            <circle cx="-479.23" cy="199.97" r="5.612" />
            <circle cx="-462.7" cy="191.51" r="5.514" />
            <circle cx="-446.19" cy="183.02" r="5.416" />
            <circle cx="-429.62" cy="174.67" r="5.318" />
            <circle cx="-412.88" cy="166.65" r="5.22" />
            <circle cx="-395.89" cy="159.17" r="5.121" />
            <circle cx="-378.59" cy="152.43" r="5.022" />
            <circle cx="-360.94" cy="146.65" r="4.924" />
            <path d="m-342.97 146.83c-2.666 0-4.828-2.162-4.828-4.826s2.162-4.826 4.828-4.826c2.663 0 4.824 2.162 4.824 4.826s-2.161 4.826-4.824 4.826z" />
            <circle cx="-324.7" cy="138.64" r="4.729" />
            <circle cx="-306.24" cy="136.65" r="4.629" />
            <circle cx="-287.68" cy="136.05" r="4.531" />
            <path d="m-269.12 141.25c-2.449 0-4.435-1.986-4.435-4.434 0-2.45 1.985-4.434 4.435-4.434 2.446 0 4.431 1.983 4.431 4.434-1e-3 2.448-1.985 4.434-4.431 4.434z" />
            <circle cx="-250.66" cy="138.86" r="4.334" />
            <circle cx="-232.36" cy="142.06" r="4.235" />
            <path d="m-214.28 150.44c-2.287 0-4.14-1.852-4.14-4.137s1.853-4.138 4.14-4.138c2.283 0 4.136 1.853 4.136 4.138s-1.853 4.137-4.136 4.137z" />
            <circle cx="-196.44" cy="151.48" r="4.04" />
            <circle cx="-178.86" cy="157.45" r="3.941" />
            <circle cx="-161.53" cy="164.14" r="3.843" />
            <circle cx="-144.45" cy="171.44" r="3.745" />
            <circle cx="-127.61" cy="179.29" r="3.646" />
            <circle cx="-110.8" cy="187.2" r="3.548" />
            <circle cx="-93.852" cy="194.8" r="3.451" />
            <circle cx="-76.749" cy="202.04" r="3.353" />
            <circle cx="-59.493" cy="208.92" r="3.255" />
            <circle cx="-42.085" cy="215.4" r="3.156" />
            <circle cx="-24.523" cy="221.46" r="3.059" />
            <circle cx="-6.812" cy="227.06" r="2.961" />
            <circle cx="11.049" cy="232.18" r="2.862" />
            <circle cx="29.049" cy="236.77" r="2.765" />
            <circle cx="47.181" cy="240.82" r="2.667" />
            <circle cx="65.434" cy="244.29" r="2.568" />
            <circle cx="83.788" cy="247.16" r="2.471" />
            <circle cx="102.23" cy="249.39" r="2.372" />
            <circle cx="120.74" cy="250.98" r="2.275" />
            <circle cx="139.3" cy="251.93" r="2.177" />
            <circle cx="157.87" cy="252.23" r="2.079" />
            <circle cx="176.45" cy="251.9" r="1.981" />
            <circle cx="195" cy="250.96" r="1.882" />
            <circle cx="213.52" cy="249.46" r="1.785" />
            <circle cx="231.99" cy="247.46" r="1.687" />
            <circle cx="250.41" cy="245.03" r="1.588" />
            <circle cx="268.77" cy="242.24" r="1.491" />
            <circle cx="287.1" cy="239.19" r="1.393" />
            <path d="m305.4 237.26c-0.717 0-1.296-0.578-1.296-1.294s0.579-1.296 1.296-1.296c0.713 0 1.294 0.58 1.294 1.296s-0.582 1.294-1.294 1.294z" />
            <circle cx="323.68" cy="232.7" r="1.197" />
            <circle cx="341.98" cy="229.49" r="1.099" />
            <circle cx="360.3" cy="226.46" r="1.001" />
            <circle cx="378.68" cy="223.71" r=".904" />
            <circle cx="397.1" cy="221.37" r=".805" />
            <circle cx="415.59" cy="219.54" r=".707" />
            <circle cx="434.12" cy="218.32" r=".609" />
            <circle cx="452.69" cy="217.79" r=".511" />
            <circle cx="471.26" cy="218.02" r=".413" />
            <circle cx="489.81" cy="219.06" r=".315" />
            <circle cx="508.29" cy="220.91" r=".217" />
            <circle cx="526.67" cy="223.59" r=".12" />
            <circle cx="544.92" cy="227.08" r=".021" />
        </g>
        <g fill="#214782">
            <circle cx="-942.85" cy="154.38" r="8.36" />
            <circle cx="-928.55" cy="166.22" r="8.262" />
            <circle cx="-913.7" cy="177.38" r="8.163" />
            <circle cx="-898.44" cy="187.98" r="8.065" />
            <circle cx="-882.82" cy="198.02" r="7.968" />
            <circle cx="-866.86" cy="207.53" r="7.87" />
            <circle cx="-850.58" cy="216.47" r="7.771" />
            <circle cx="-833.99" cy="224.83" r="7.673" />
            <circle cx="-817.11" cy="232.58" r="7.575" />
            <circle cx="-799.94" cy="239.68" r="7.478" />
            <circle cx="-782.52" cy="246.1" r="7.378" />
            <circle cx="-764.83" cy="251.79" r="7.282" />
            <circle cx="-746.92" cy="256.72" r="7.183" />
            <circle cx="-728.81" cy="260.83" r="7.085" />
            <circle cx="-710.52" cy="264.1" r="6.987" />
            <circle cx="-692.1" cy="266.46" r="6.889" />
            <circle cx="-673.58" cy="267.9" r="6.79" />
            <circle cx="-655.01" cy="268.36" r="6.692" />
            <circle cx="-636.45" cy="267.82" r="6.596" />
            <circle cx="-617.94" cy="266.28" r="6.497" />
            <circle cx="-599.55" cy="263.7" r="6.398" />
            <circle cx="-581.32" cy="260.16" r="6.3" />
            <circle cx="-563.28" cy="255.73" r="6.202" />
            <path d="m-545.48 256.55c-3.369 0-6.102-2.732-6.102-6.103s2.732-6.104 6.102-6.104c3.373 0 6.104 2.734 6.104 6.104s-2.73 6.103-6.104 6.103z" />
            <path d="m-527.92 250.37c-3.315 0-6.003-2.688-6.003-6.003 0-3.317 2.688-6.006 6.003-6.006 3.318 0 6.006 2.688 6.006 6.006 0 3.315-2.688 6.003-6.006 6.003z" />
            <circle cx="-510.63" cy="237.59" r="5.906" />
            <circle cx="-493.58" cy="230.21" r="5.809" />
            <circle cx="-476.75" cy="222.36" r="5.71" />
            <circle cx="-460.08" cy="214.17" r="5.611" />
            <circle cx="-443.5" cy="205.8" r="5.513" />
            <circle cx="-426.94" cy="197.4" r="5.415" />
            <circle cx="-410.31" cy="189.16" r="5.316" />
            <circle cx="-393.51" cy="181.24" r="5.219" />
            <circle cx="-376.48" cy="173.87" r="5.12" />
            <circle cx="-359.14" cy="167.22" r="5.021" />
            <circle cx="-341.47" cy="161.51" r="4.923" />
            <path d="m-323.47 161.75c-2.665 0-4.827-2.161-4.827-4.824 0-2.665 2.162-4.826 4.827-4.826 2.662 0 4.823 2.161 4.823 4.826 1e-3 2.662-2.161 4.824-4.823 4.824z" />
            <circle cx="-305.2" cy="153.59" r="4.727" />
            <circle cx="-286.74" cy="151.6" r="4.628" />
            <circle cx="-268.17" cy="151" r="4.529" />
            <path d="m-249.61 156.16c-2.449 0-4.434-1.986-4.434-4.433 0-2.449 1.984-4.432 4.434-4.432 2.445 0 4.429 1.982 4.429 4.432-1e-3 2.446-1.984 4.433-4.429 4.433z" />
            <circle cx="-231.15" cy="153.73" r="4.333" />
            <circle cx="-212.85" cy="156.89" r="4.234" />
            <path d="m-194.75 165.22c-2.287 0-4.139-1.852-4.139-4.136 0-2.285 1.852-4.136 4.139-4.136 2.281 0 4.133 1.851 4.133 4.136s-1.852 4.136-4.133 4.136z" />
            <circle cx="-176.9" cy="166.21" r="4.038" />
            <circle cx="-159.3" cy="172.14" r="3.939" />
            <circle cx="-141.95" cy="178.78" r="3.841" />
            <circle cx="-124.86" cy="186.05" r="3.743" />
            <circle cx="-108" cy="193.86" r="3.644" />
            <circle cx="-91.173" cy="201.73" r="3.546" />
            <circle cx="-74.198" cy="209.27" r="3.449" />
            <circle cx="-57.076" cy="216.48" r="3.351" />
            <circle cx="-39.803" cy="223.31" r="3.252" />
            <circle cx="-22.378" cy="229.75" r="3.154" />
            <circle cx="-4.801" cy="235.76" r="3.057" />
            <circle cx="12.924" cy="241.32" r="2.958" />
            <circle cx="30.795" cy="246.4" r="2.86" />
            <circle cx="48.806" cy="250.96" r="2.763" />
            <circle cx="66.944" cy="254.98" r="2.665" />
            <circle cx="85.203" cy="258.42" r="2.566" />
            <circle cx="103.56" cy="261.25" r="2.469" />
            <circle cx="122.01" cy="263.47" r="2.37" />
            <circle cx="140.52" cy="265.04" r="2.272" />
            <circle cx="159.08" cy="265.97" r="2.175" />
            <circle cx="177.65" cy="266.26" r="2.077" />
            <circle cx="196.23" cy="265.92" r="1.979" />
            <circle cx="214.78" cy="264.98" r="1.88" />
            <path d="m233.3 265.27c-0.983 0-1.782-0.799-1.782-1.78 0-0.986 0.799-1.784 1.782-1.784 0.984 0 1.783 0.798 1.783 1.784 0 0.981-0.799 1.78-1.783 1.78z" />
            <circle cx="251.77" cy="261.49" r="1.684" />
            <circle cx="270.19" cy="259.06" r="1.586" />
            <circle cx="288.56" cy="256.28" r="1.489" />
            <circle cx="306.88" cy="253.24" r="1.39" />
            <circle cx="325.18" cy="250.05" r="1.292" />
            <circle cx="343.47" cy="246.8" r="1.194" />
            <circle cx="361.77" cy="243.62" r="1.097" />
            <circle cx="380.11" cy="240.61" r=".999" />
            <circle cx="398.48" cy="237.9" r=".901" />
            <circle cx="416.92" cy="235.59" r=".803" />
            <circle cx="435.41" cy="233.8" r=".705" />
            <circle cx="453.94" cy="232.62" r=".607" />
            <circle cx="472.51" cy="232.13" r=".508" />
            <circle cx="491.09" cy="232.4" r=".41" />
            <circle cx="509.63" cy="233.47" r=".312" />
            <circle cx="528.11" cy="235.36" r=".214" />
            <circle cx="546.48" cy="238.07" r=".117" />
            <circle cx="564.72" cy="241.59" r=".019" />
        </g>
        <g fill="#244982">
            <circle cx="-923.58" cy="168.77" r="8.36" />
            <circle cx="-909.32" cy="180.66" r="8.262" />
            <circle cx="-894.5" cy="191.86" r="8.164" />
            <circle cx="-879.27" cy="202.5" r="8.065" />
            <circle cx="-863.67" cy="212.58" r="7.969" />
            <circle cx="-847.73" cy="222.12" r="7.87" />
            <circle cx="-831.46" cy="231.09" r="7.771" />
            <circle cx="-814.88" cy="239.47" r="7.673" />
            <circle cx="-798.01" cy="247.24" r="7.575" />
            <circle cx="-780.85" cy="254.35" r="7.478" />
            <circle cx="-763.42" cy="260.77" r="7.378" />
            <circle cx="-745.74" cy="266.46" r="7.281" />
            <circle cx="-727.82" cy="271.38" r="7.183" />
            <circle cx="-709.71" cy="275.48" r="7.084" />
            <circle cx="-691.41" cy="278.72" r="6.986" />
            <circle cx="-672.99" cy="281.04" r="6.889" />
            <circle cx="-654.46" cy="282.43" r="6.79" />
            <circle cx="-635.89" cy="282.83" r="6.692" />
            <circle cx="-617.33" cy="282.22" r="6.595" />
            <circle cx="-598.83" cy="280.6" r="6.496" />
            <circle cx="-580.44" cy="277.93" r="6.397" />
            <circle cx="-562.23" cy="274.3" r="6.299" />
            <circle cx="-544.21" cy="269.81" r="6.201" />
            <circle cx="-526.41" cy="264.48" r="6.103" />
            <circle cx="-508.86" cy="258.39" r="6.004" />
            <circle cx="-491.56" cy="251.62" r="5.905" />
            <circle cx="-474.5" cy="244.28" r="5.808" />
            <circle cx="-457.64" cy="236.48" r="5.71" />
            <circle cx="-440.93" cy="228.37" r="5.61" />
            <circle cx="-424.31" cy="220.08" r="5.512" />
            <circle cx="-407.7" cy="211.78" r="5.414" />
            <circle cx="-391" cy="203.64" r="5.315" />
            <circle cx="-374.15" cy="195.84" r="5.217" />
            <circle cx="-357.06" cy="188.56" r="5.118" />
            <circle cx="-339.69" cy="182.01" r="5.02" />
            <circle cx="-321.99" cy="176.38" r="4.921" />
            <path d="m-303.98 176.66c-2.665 0-4.825-2.16-4.825-4.822 0-2.664 2.16-4.824 4.825-4.824 2.661 0 4.822 2.16 4.822 4.824 0 2.661-2.161 4.822-4.822 4.822z" />
            <circle cx="-285.7" cy="168.54" r="4.726" />
            <circle cx="-267.24" cy="166.56" r="4.626" />
            <circle cx="-248.67" cy="165.94" r="4.527" />
            <path d="m-230.11 171.08c-2.448 0-4.433-1.986-4.433-4.432 0-2.448 1.984-4.43 4.433-4.43 2.444 0 4.428 1.981 4.428 4.43-1e-3 2.445-1.984 4.432-4.428 4.432z" />
            <circle cx="-211.64" cy="168.6" r="4.332" />
            <circle cx="-193.33" cy="171.71" r="4.232" />
            <path d="m-175.22 180c-2.286 0-4.137-1.851-4.137-4.134 0-2.284 1.851-4.135 4.137-4.135 2.28 0 4.132 1.851 4.132 4.135 0 2.283-1.851 4.134-4.132 4.134z" />
            <circle cx="-157.36" cy="180.94" r="4.036" />
            <circle cx="-139.74" cy="186.82" r="3.937" />
            <circle cx="-122.38" cy="193.42" r="3.839" />
            <circle cx="-105.26" cy="200.66" r="3.741" />
            <circle cx="-88.394" cy="208.44" r="3.642" />
            <circle cx="-71.542" cy="216.25" r="3.544" />
            <circle cx="-54.546" cy="223.75" r="3.447" />
            <circle cx="-37.403" cy="230.91" r="3.349" />
            <circle cx="-20.111" cy="237.7" r="3.25" />
            <circle cx="-2.67" cy="244.09" r="3.152" />
            <circle cx="14.922" cy="250.07" r="3.054" />
            <circle cx="32.66" cy="255.59" r="2.956" />
            <circle cx="50.542" cy="260.63" r="2.858" />
            <circle cx="68.562" cy="265.15" r="2.761" />
            <circle cx="86.709" cy="269.13" r="2.662" />
            <circle cx="104.97" cy="272.54" r="2.564" />
            <path d="m123.34 277.82c-1.361 0-2.467-1.105-2.467-2.466 0-1.364 1.105-2.467 2.467-2.467 1.359 0 2.466 1.103 2.466 2.467 0 1.36-1.107 2.466-2.466 2.466z" />
            <circle cx="141.79" cy="277.54" r="2.367" />
            <circle cx="160.3" cy="279.1" r="2.27" />
            <circle cx="178.85" cy="280.01" r="2.173" />
            <circle cx="197.43" cy="280.29" r="2.074" />
            <circle cx="216.01" cy="279.94" r="1.976" />
            <circle cx="234.56" cy="279" r="1.877" />
            <circle cx="253.08" cy="277.5" r="1.78" />
            <circle cx="271.55" cy="275.51" r="1.682" />
            <circle cx="289.97" cy="273.09" r="1.584" />
            <circle cx="308.34" cy="270.32" r="1.487" />
            <circle cx="326.67" cy="267.3" r="1.388" />
            <path d="m344.97 265.42c-0.714 0-1.291-0.576-1.291-1.289s0.577-1.291 1.291-1.291c0.71 0 1.288 0.578 1.288 1.291s-0.578 1.289-1.288 1.289z" />
            <circle cx="363.26" cy="260.9" r="1.191" />
            <circle cx="381.57" cy="257.74" r="1.094" />
            <circle cx="399.91" cy="254.76" r=".996" />
            <circle cx="418.29" cy="252.08" r=".899" />
            <circle cx="436.73" cy="249.81" r=".8" />
            <circle cx="455.22" cy="248.06" r=".702" />
            <circle cx="473.76" cy="246.92" r=".604" />
            <circle cx="492.33" cy="246.47" r=".506" />
            <circle cx="510.91" cy="246.78" r=".408" />
            <circle cx="529.45" cy="247.88" r=".31" />
            <path d="m547.93 250.02c-0.118 0-0.213-0.093-0.213-0.211 0-0.115 0.095-0.213 0.213-0.213 0.114 0 0.209 0.098 0.209 0.213 0 0.118-0.095 0.211-0.209 0.211z" />
            <circle cx="566.3" cy="252.56" r=".114" />
            <circle cx="584.53" cy="256.1" r=".016" />
        </g>
        <g fill="#264B82">
            <circle cx="-904.32" cy="183.17" r="8.36" />
            <circle cx="-890.09" cy="195.11" r="8.262" />
            <circle cx="-875.3" cy="206.35" r="8.163" />
            <circle cx="-860.09" cy="217.02" r="8.065" />
            <circle cx="-844.51" cy="227.14" r="7.968" />
            <circle cx="-828.59" cy="236.7" r="7.87" />
            <circle cx="-812.34" cy="245.7" r="7.771" />
            <circle cx="-795.78" cy="254.11" r="7.672" />
            <circle cx="-778.91" cy="261.9" r="7.575" />
            <circle cx="-761.75" cy="269.02" r="7.478" />
            <circle cx="-744.33" cy="275.45" r="7.378" />
            <circle cx="-726.64" cy="281.14" r="7.281" />
            <circle cx="-708.73" cy="286.05" r="7.183" />
            <circle cx="-690.6" cy="290.13" r="7.084" />
            <circle cx="-672.31" cy="293.33" r="6.986" />
            <circle cx="-653.87" cy="295.62" r="6.888" />
            <circle cx="-635.35" cy="296.96" r="6.789" />
            <circle cx="-616.77" cy="297.3" r="6.691" />
            <circle cx="-598.21" cy="296.62" r="6.594" />
            <circle cx="-579.71" cy="294.92" r="6.496" />
            <circle cx="-561.34" cy="292.16" r="6.396" />
            <circle cx="-543.14" cy="288.45" r="6.298" />
            <circle cx="-525.13" cy="283.88" r="6.2" />
            <path d="m-507.35 284.62c-3.368 0-6.101-2.731-6.101-6.101s2.732-6.104 6.101-6.104c3.372 0 6.103 2.734 6.103 6.104s-2.731 6.101-6.103 6.101z" />
            <path d="m-489.8 278.41c-3.314 0-6.001-2.687-6.001-6.002s2.687-6.004 6.001-6.004c3.317 0 6.004 2.688 6.004 6.004s-2.686 6.002-6.004 6.002z" />
            <circle cx="-472.5" cy="265.65" r="5.904" />
            <circle cx="-455.42" cy="258.34" r="5.807" />
            <circle cx="-438.53" cy="250.6" r="5.709" />
            <circle cx="-421.79" cy="242.56" r="5.609" />
            <circle cx="-405.11" cy="234.37" r="5.511" />
            <circle cx="-388.44" cy="226.17" r="5.413" />
            <circle cx="-371.7" cy="218.13" r="5.314" />
            <circle cx="-354.79" cy="210.43" r="5.216" />
            <circle cx="-337.65" cy="203.26" r="5.117" />
            <circle cx="-320.24" cy="196.8" r="5.019" />
            <circle cx="-302.51" cy="191.24" r="4.92" />
            <path d="m-284.49 191.58c-2.664 0-4.824-2.16-4.824-4.821 0-2.663 2.16-4.823 4.824-4.823 2.66 0 4.82 2.16 4.82 4.823 0 2.661-2.16 4.821-4.82 4.821z" />
            <circle cx="-266.2" cy="183.49" r="4.724" />
            <circle cx="-247.74" cy="181.52" r="4.625" />
            <circle cx="-229.17" cy="180.88" r="4.526" />
            <path d="m-210.61 185.99c-2.447 0-4.431-1.985-4.431-4.43 0-2.447 1.983-4.429 4.431-4.429 2.443 0 4.426 1.981 4.426 4.429-1e-3 2.444-1.983 4.43-4.426 4.43z" />
            <circle cx="-192.13" cy="183.48" r="4.33" />
            <circle cx="-173.81" cy="186.54" r="4.23" />
            <path d="m-155.69 194.77c-2.285 0-4.135-1.85-4.135-4.132 0-2.283 1.85-4.133 4.135-4.133 2.279 0 4.13 1.85 4.13 4.133 0 2.282-1.851 4.132-4.13 4.132z" />
            <circle cx="-137.81" cy="195.67" r="4.035" />
            <circle cx="-120.18" cy="201.51" r="3.936" />
            <circle cx="-102.8" cy="208.07" r="3.837" />
            <circle cx="-85.673" cy="215.26" r="3.739" />
            <circle cx="-68.785" cy="223.01" r="3.64" />
            <circle cx="-51.91" cy="230.78" r="3.542" />
            <circle cx="-34.893" cy="238.23" r="3.445" />
            <circle cx="-17.73" cy="245.34" r="3.347" />
            <circle cx="-.42" cy="252.09" r="3.249" />
            <circle cx="17.038" cy="258.44" r="3.15" />
            <circle cx="34.645" cy="264.37" r="3.052" />
            <circle cx="52.396" cy="269.85" r="2.954" />
            <circle cx="70.289" cy="274.85" r="2.856" />
            <circle cx="88.318" cy="279.34" r="2.759" />
            <circle cx="106.47" cy="283.29" r="2.66" />
            <circle cx="124.74" cy="286.67" r="2.562" />
            <path d="m143.11 291.92c-1.36 0-2.465-1.104-2.465-2.464 0-1.363 1.104-2.465 2.465-2.465 1.358 0 2.464 1.102 2.464 2.465 0 1.36-1.105 2.464-2.464 2.464z" />
            <circle cx="161.56" cy="291.62" r="2.365" />
            <circle cx="180.08" cy="293.16" r="2.268" />
            <circle cx="198.64" cy="294.06" r="2.17" />
            <circle cx="217.21" cy="294.32" r="2.072" />
            <circle cx="235.79" cy="293.96" r="1.974" />
            <circle cx="254.34" cy="293.02" r="1.875" />
            <circle cx="272.86" cy="291.52" r="1.777" />
            <circle cx="291.33" cy="289.54" r="1.679" />
            <circle cx="309.75" cy="287.12" r="1.582" />
            <circle cx="328.12" cy="284.37" r="1.484" />
            <path d="m346.45 282.75c-0.765 0-1.384-0.618-1.384-1.386 0-0.764 0.619-1.384 1.384-1.384s1.384 0.62 1.384 1.384c0 0.767-0.619 1.386-1.384 1.386z" />
            <circle cx="364.76" cy="278.2" r="1.287" />
            <circle cx="383.06" cy="275" r="1.189" />
            <circle cx="401.37" cy="271.87" r="1.091" />
            <circle cx="419.71" cy="268.92" r=".993" />
            <circle cx="438.1" cy="266.27" r=".896" />
            <circle cx="456.54" cy="264.03" r=".797" />
            <circle cx="475.04" cy="262.32" r=".699" />
            <circle cx="493.58" cy="261.21" r=".601" />
            <circle cx="512.16" cy="260.8" r=".503" />
            <circle cx="530.73" cy="261.15" r=".405" />
            <circle cx="549.27" cy="262.3" r=".307" />
            <circle cx="567.74" cy="264.26" r=".209" />
            <circle cx="586.11" cy="267.04" r=".111" />
            <circle cx="604.34" cy="270.61" r=".013" />
        </g>
    </g>
</svg>