<?xml version="1.0" encoding="UTF-8"?>
<svg enable-background="new 0 0 1280 432" version="1.1" viewBox="0 0 1280 432" xml:space="preserve" xmlns="http://www.w3.org/2000/svg">
    <g fill="none" stroke="#020305" stroke-linecap="round" stroke-linejoin="round" stroke-miterlimit="10">
        <path d="m143.59 58.96c23.311 28.738 49.892 55.294 82.086 70.962 43.597 21.219 101.64 19.271 136.69-20.569 40.355-45.873 63.47-91.481 128.23-97.403 45.664-4.176 99.903 15.775 125 58.293 14.888 25.229 23.103 54.511 35.463 81.368 29.644 64.412 79.833 79.713 138.67 45.309 28.107-16.433 59.914-35.422 89.563-24.425 38.88 14.418 53.55 73.951 93.989 82.414 22.095 4.625 44.07-8.044 65.251-17.253 50.425-21.926 71.363 25.813 117.1 19.771 11.48-1.517 21.879-8.405 33.11-11.573 11.594-3.27 34.327 0.014 30.305 18.071" stroke-dasharray="0,2.0145" stroke-width="1.0073" />
        <path d="m145.69 73.664c23.17 28.6 50.323 53.653 82.649 67.708 23.175 10.125 50.094 13.776 75.342 9.1 22.285-4.137 43.35-14.687 59.778-32.89 30.178-33.486 51.345-67.113 86.644-84.962 11.714-5.934 25.014-10.09 40.675-12.03 45.21-5.601 98.572 11.621 125.05 52.075 15.855 24.223 25.096 53.03 37.861 79.853 6.534 13.788 13.911 25.511 22.064 35.089 29.166 34.147 67.712 38.275 114.7 16.935 14.879-6.756 30.642-16.086 46.374-22.971 20.428-8.922 42.009-12.293 62.323-4.867 36.693 13.578 51.455 68.554 89.677 77.028 20.847 4.611 41.615-6.469 61.622-14.589 47.382-19.231 67.864 24.313 110.9 18.292 10.825-1.521 20.664-7.979 31.257-11.122 10.94-3.248 32.004-0.612 28.738 15.374" stroke-dasharray="0,2.0145" stroke-width="1.0073" />
        <path d="m147.8 88.367c23.03 28.462 50.753 52.011 83.213 64.454 23.179 8.969 49.765 11.541 74.55 6.211 21.903-4.73 42.569-15.48 59.004-33.22 30.021-32.491 51.762-65.415 86.501-83.672 11.579-6.106 24.664-10.51 39.903-12.91 44.765-7.051 97.266 7.463 125.11 45.858 16.836 23.212 27.089 51.548 40.26 78.335 6.638 13.601 13.99 25.383 22.052 35.192 28.578 34.568 65.75 40.328 112.8 23.548 17.826-6.356 36.3-17.494 54.711-25.834 23.701-10.708 49.354-14.102 73.12-5.417 34.548 12.625 49.362 63.156 85.364 71.64 19.602 4.6 39.155-4.893 57.993-11.923 44.327-16.542 64.366 22.813 104.7 16.813 10.17-1.522 19.45-7.553 29.405-10.67 10.287-3.227 29.681-1.237 27.173 12.677" stroke-dasharray="0,2.0145" stroke-width="1.0073" />
        <path d="m149.9 103.07c22.89 28.325 51.208 50.3 83.779 61.202 23.198 7.765 49.435 9.304 73.755 3.32 21.524-5.323 41.79-16.273 58.232-33.549 29.863-31.497 52.181-63.718 86.357-82.382 11.443-6.279 24.317-10.94 39.132-13.791 44.322-8.524 95.986 3.301 125.17 39.642 17.829 22.201 29.081 50.066 42.655 76.819 6.74 13.413 14.053 25.268 22.039 35.294 27.92 35.046 64.253 43.169 110.91 30.161 20.912-5.832 41.959-18.901 63.051-28.696 26.969-12.494 56.684-15.866 83.912-5.967 32.371 11.768 47.271 57.759 81.054 66.254 18.354 4.586 36.693-3.321 54.365-9.259 41.26-13.861 60.866 21.313 98.5 15.335 9.518-1.526 18.236-7.127 27.55-10.221 9.636-3.205 27.36-1.862 25.608 9.98" stroke-dasharray="0,2.0145" stroke-width="1.0073" />
        <path d="m152 117.77c22.75 28.187 51.638 48.644 84.345 57.948 23.2 6.601 49.104 7.069 72.961 0.43 21.144-5.913 41.009-17.065 57.458-33.879 29.707-30.5 52.597-62.017 86.213-81.09 11.311-6.453 23.971-11.382 38.364-14.671 43.88-10.026 94.727-0.875 125.23 33.423 18.836 21.182 31.135 48.553 45.051 75.303 6.873 13.208 14.128 25.141 22.027 35.397 27.318 35.474 62.993 46.583 109.01 36.773 24.087-5.135 47.614-20.308 71.385-31.557 30.242-14.281 64.013-17.625 94.709-6.518 30.187 10.924 45.176 52.361 76.738 60.866 17.108 4.573 34.227-1.751 50.739-6.592 38.184-11.192 57.368 19.812 92.3 13.855 8.862-1.53 17.021-6.702 25.697-9.769 8.982-3.185 25.037-2.487 24.041 7.282" stroke-dasharray="0,2.0145" stroke-width="1.0073" />
        <path d="m154.11 132.48c22.611 28.05 52.067 46.994 84.91 54.695 23.201 5.439 48.774 4.832 72.168-2.461 20.764-6.505 40.229-17.858 56.687-34.209 29.548-29.506 53.015-60.319 86.069-79.8 11.175-6.625 23.622-11.833 37.593-15.551 43.436-11.559 93.492-5.063 125.28 27.206 19.858 20.156 33.131 47.069 47.449 73.786 6.977 13.021 14.206 25.012 22.014 35.5 26.725 35.897 61.836 50.411 107.12 43.386 27.31-4.236 53.273-21.716 79.724-34.42 33.512-16.067 71.337-19.377 105.5-7.067 27.999 10.089 43.084 46.964 72.427 55.479 15.862 4.561 31.75-0.189 47.11-3.926 35.088-8.539 53.871 18.311 86.099 12.375 8.207-1.532 15.808-6.275 23.845-9.316 8.33-3.163 22.712-3.113 22.475 4.584" stroke-dasharray="0,2.0145" stroke-width="1.0073" />
        <path d="m156.21 147.18c22.472 27.911 52.494 45.351 85.474 51.441 23.203 4.284 48.445 2.597 71.375-5.351 20.384-7.098 39.449-18.651 55.913-34.541 29.392-28.509 53.432-58.619 85.925-78.509 11.042-6.797 23.273-12.294 36.823-16.43 42.986-13.121 92.278-9.271 125.34 20.987 20.892 19.118 35.125 45.586 49.846 72.271 7.08 12.831 14.285 24.881 22.001 35.602 26.136 36.316 60.731 45.106 105.22 49.999 30.525 3.357 58.932-23.124 88.061-37.283 36.785-17.852 78.661-21.122 116.3-7.617 25.81 9.261 40.993 41.565 68.116 50.093 14.615 4.547 29.269 1.364 43.482-1.263 31.978-5.907 50.372 16.811 79.896 10.898 7.553-1.535 14.594-5.851 21.992-8.867 7.675-3.142 20.389-3.737 20.91 1.889" stroke-dasharray="0,2.0145" stroke-width="1.0073" />
        <path d="m158.32 161.88c22.331 27.775 52.918 43.715 86.04 48.188 23.2 3.134 48.115 0.361 70.582-8.24 20.002-7.69 38.668-19.444 55.141-34.871 29.233-27.514 53.85-56.921 85.781-77.219 10.907-6.969 22.918-12.765 36.053-17.31 42.524-14.716 91.08-13.498 125.4 14.77 21.938 18.068 37.113 44.105 52.244 70.754 7.181 12.643 14.368 24.75 21.989 35.704 25.554 36.73 59.828 50.913 103.32 56.611 33.542 4.395 64.591-24.529 96.397-40.145 40.058-19.639 85.983-22.855 127.1-8.167 23.616 8.439 38.898 36.169 63.804 44.705 13.367 4.535 26.777 2.905 39.854 1.402 28.849-3.311 46.873 15.312 73.696 9.421 6.896-1.538 13.379-5.425 20.137-8.416 7.024-3.12 18.068-4.362 19.345-0.809" stroke-dasharray="0,2.0145" stroke-width="1.0073" />
        <path d="m160.42 176.59c22.192 27.637 53.344 42.085 86.606 44.934 23.199 1.988 47.784-1.874 69.788-11.129 19.624-8.282 37.887-20.237 54.367-35.202 29.077-26.518 54.267-55.222 85.639-75.928 10.771-7.142 22.562-13.246 35.283-18.19 42.047-16.341 89.896-17.747 125.46 8.553 22.993 17.003 39.044 42.659 54.641 69.237 7.252 12.472 14.473 24.604 21.976 35.808 25.049 37.094 58.688 57.164 101.43 63.224 36.618 5.192 70.249-25.938 104.74-43.007 43.326-21.426 93.295-24.578 137.89-8.717 21.426 7.621 36.809 30.772 59.494 39.319 12.119 4.522 24.279 4.423 36.225 4.067 25.705-0.764 43.375 13.811 67.495 7.94 6.242-1.54 12.165-4.998 18.284-7.965 6.371-3.098 15.745-4.986 17.778-3.505" stroke-dasharray="0,2.0145" stroke-width="1.0073" />
        <path d="m162.52 191.29c22.052 27.5 53.771 40.521 87.171 41.681 23.199 0.887 47.454-4.111 68.995-14.02 19.244-8.875 37.108-21.031 53.595-35.532 28.919-25.523 54.685-53.523 85.493-74.638 10.639-7.314 22.198-13.735 34.513-19.07 41.554-18.001 88.722-22.021 125.52 2.336 24.052 15.92 41.037 41.176 57.038 67.719 7.356 12.285 14.553 24.475 21.962 35.911 24.464 37.514 57.308 63.731 99.53 69.836 39.753 5.747 75.908-27.345 113.07-45.868 46.6-23.212 100.6-26.281 148.68-9.267 19.229 6.805 34.716 25.372 55.182 33.93 10.873 4.509 21.78 5.911 32.597 6.733 22.559 1.717 39.875 12.311 61.293 6.462 5.587-1.544 10.951-4.573 16.432-7.514 5.717-3.077 13.42-5.612 16.211-6.202" stroke-dasharray="0,2.0145" stroke-width="1.0073" />
        <path d="m164.63 205.99c21.913 27.361 54.2 38.879 87.735 38.427 23.202-0.268 47.125-6.346 68.203-16.91 18.863-9.465 36.326-21.821 52.82-35.86 28.763-24.528 55.102-51.825 85.352-73.348 10.503-7.486 21.829-14.233 33.741-19.95 41.037-19.693 87.555-26.319 125.58-3.883 25.117 14.824 43.029 39.695 59.434 66.205 7.458 12.096 14.633 24.344 21.951 36.013 23.873 37.936 55.433 72.729 97.632 76.448 43.201 3.809 81.566-28.752 121.41-48.73 49.871-24.998 107.87-27.871 159.48-9.816 17.024 6.021 32.621 19.975 50.869 28.544 9.625 4.496 19.294 7.354 28.968 9.398 19.441 4.108 36.376 10.809 55.093 4.982 4.934-1.547 9.736-4.147 14.579-7.063 5.063-3.056 11.097-6.237 14.646-8.899" stroke-dasharray="0,2.0145" stroke-width="1.0073" />
        <path d="m166.73 220.7c36.777 45.986 105.18 42.866 155.71 15.373 50.522-27.493 90.441-73.666 137.25-108.25 46.814-34.581 108.19-57.317 158.6-30.928 37.964 19.871 60.484 62.446 83.769 100.8s53.835 77.491 95.736 83.062c46.182 6.14 87.226-30.159 129.75-51.594 53.142-26.783 115.19-29.602 170.27-10.365 45.791 15.99 99.688 72.102 146.6 20.516" stroke-dasharray="0,2.0145" stroke-width="1.0073" />
        <path d="m168.18 229.38c41.199 48.471 115.06 44.943 169.16 13.75 48.305-27.851 87.071-72.417 132.79-105.34 47.09-33.912 107.98-52.47 157.12-24.661 37.331 21.32 60.552 62.736 85.923 96.36 25.116 33.285 54.97 66.124 95.604 68.55 44.545 2.658 84.785-32.884 126.94-53.031 51.851-24.783 111.59-25.756 164.81-6.604 44.548 16.081 102.66 74.099 146.6 19.726" stroke-dasharray="0,2.0145" stroke-width="1.0073" />
        <path d="m169.63 238.08c45.621 50.951 124.95 47.116 182.6 12.122 46.169-28.021 83.719-71.147 128.33-102.43 47.379-33.229 107.87-47.791 155.63-18.39 36.775 22.639 60.479 62.933 88.078 91.918 26.803 28.15 56.078 54.771 95.472 54.035 42.882-0.802 82.333-35.619 124.12-54.47 50.548-22.799 107.99-21.91 159.36-2.84 43.305 16.171 105.63 76.096 146.6 18.933" stroke-dasharray="0,2.0145" stroke-width="1.0073" />
        <path d="m171.08 246.76c50.042 53.438 134.88 49.398 196.05 10.5 44.107-28.047 80.38-69.861 123.86-99.528 47.682-32.532 107.7-42.993 154.15-12.119 36.175 24.047 60.221 63.082 90.23 87.474 28.306 23.008 57.173 43.445 95.34 39.522 41.202-4.234 79.873-38.366 121.32-55.907 49.228-20.836 104.39-18.066 153.9 0.921 42.059 16.263 108.6 78.093 146.6 18.143" stroke-dasharray="0,2.0145" stroke-width="1.0073" />
        <path d="m172.52 255.45c54.462 55.919 144.86 51.785 209.5 8.873 42.111-27.956 77.058-68.555 119.4-96.619 47.999-31.819 107.52-38.175 152.66-5.851 35.566 25.472 59.748 63.264 92.386 83.033 29.592 17.926 58.251 32.148 95.205 25.009 39.511-7.634 77.401-41.132 118.5-57.346 47.896-18.894 100.79-14.219 148.44 4.685 40.816 16.354 111.58 80.09 146.61 17.352" stroke-dasharray="0,2.0145" stroke-width="1.0073" />
        <path d="m173.97 264.14c58.884 58.401 154.91 54.288 222.95 7.247 40.17-27.771 73.752-67.226 114.93-93.711 48.333-31.086 107.34-33.336 151.18 0.42 34.951 26.912 59.08 63.58 94.54 78.59 30.693 12.992 59.328 20.888 95.073 10.495 37.813-10.992 74.92-43.915 115.69-58.784 46.549-16.977 97.188-10.372 142.98 8.447 39.573 16.443 114.55 82.088 146.61 16.562" stroke-dasharray="0,2.0145" stroke-width="1.0073" />
        <path d="m175.42 272.83c63.307 60.884 165.04 56.912 236.4 5.622 38.279-27.516 70.459-65.878 110.47-90.805 48.683-30.329 107.13-28.479 149.69 6.691 34.324 28.364 58.282 64.124 96.693 74.146 31.678 8.267 60.41 9.664 94.941-4.017 36.122-14.312 72.427-46.72 112.88-60.224 45.193-15.084 93.629-6.616 137.52 12.21 38.365 16.457 117.52 84.084 146.61 15.77" stroke-dasharray="0,2.0145" stroke-width="1.0073" />
        <path d="m176.87 281.52c67.728 63.368 175.28 59.667 249.85 3.997 36.435-27.201 67.182-64.509 106-87.897 49.046-29.547 106.91-23.607 148.2 12.96 33.687 29.831 57.459 64.945 98.849 69.704 32.645 3.756 61.508-1.523 94.807-18.53 34.45-17.593 69.927-49.55 110.07-61.661 43.825-13.223 90.026-2.766 132.06 15.973 37.123 16.549 120.5 86.081 146.62 14.979" stroke-dasharray="0,2.0145" stroke-width="1.0073" />
        <path d="m178.31 290.2c72.149 65.851 185.63 62.563 263.29 2.372 34.632-26.84 63.916-63.117 101.54-84.991 49.427-28.734 106.68-18.72 146.72 19.231 33.033 31.31 56.825 62.06 101 65.262 33.602 2.437 62.633-12.682 94.675-33.044 32.803-20.845 67.418-52.41 107.26-63.1 42.451-11.391 86.389 1.165 126.6 19.736 35.846 16.716 123.47 88.078 146.62 14.188" stroke-dasharray="0,2.0145" stroke-width="1.0073" />
        <path d="m179.76 298.89c76.57 68.335 196.11 65.609 276.74 0.746 32.868-26.441 60.66-61.701 97.078-82.083 49.827-27.887 106.43-13.821 145.23 25.5 32.368 32.8 56.117 67.293 103.15 60.821 34.851-4.796 63.792-23.819 94.543-47.558 31.19-24.077 64.905-55.303 104.44-64.538 41.07-9.592 82.791 5.011 121.14 23.498 34.601 16.807 126.44 90.076 146.62 13.396" stroke-dasharray="0,2.0145" stroke-width="1.0073" />
        <path d="m181.21 307.58c80.991 70.818 206.76 68.821 290.19-0.879 31.141-26.014 57.416-60.263 92.612-79.176 50.246-26.999 106.09-8.843 143.75 31.771 31.626 34.354 55.687 68.671 105.31 56.377 36.148-8.956 64.982-34.942 94.409-62.07 29.611-27.298 62.388-58.234 101.63-65.976 39.688-7.83 79.189 8.857 115.69 27.262 33.357 16.896 129.41 92.072 146.63 12.606" stroke-dasharray="0,2.0145" stroke-width="1.0073" />
        <path d="m182.66 316.27c85.414 73.3 217.59 72.21 303.64-2.504 29.45-25.569 54.18-58.801 88.148-76.271 50.683-26.064 105.88-3.995 142.26 38.042 30.991 35.803 55.411 70.089 107.46 51.935 37.576-13.105 66.211-46.064 94.276-76.583 28.068-30.52 59.87-61.209 98.822-67.416 38.311-6.103 75.589 12.704 110.23 31.025 32.114 16.987 132.38 94.069 146.63 11.814" stroke-dasharray="0,2.0145" stroke-width="1.0073" />
        <path d="m166.62 304.04c49.342 41.795 116.08 60.796 178.35 52.08 47.387-6.632 93.52-25.43 131.3-51.77 9.081-6.332 17.742-13.105 26.242-19.779 19.635-15.414 38.208-30.843 61.216-39.452 6.867-2.568 13.812-4.367 20.829-5.353 43.365-6.088 88.993 15.832 122.15 49.185 8.597 8.596 16.838 16.928 25.15 24.291 23.456 20.778 47.841 33.621 85.947 19.754 26.144-9.599 48.337-28.14 69.048-48.818 9.32-9.307 18.344-19.048 27.305-28.604 28.709-30.65 60.672-61.745 99.137-70.569 10.619-2.401 21.159-2.976 31.601-2.316 17.235 1.09 34.2 5.654 51.032 11.979 9.397 3.532 18.656 7.839 27.705 12.459 13.777 7.033 37.222 24.091 61.225 36.814 36.676 19.441 76.297 30.152 87.663-16.658" stroke-dasharray="0,2.0423" stroke-width="1.0212" />
        <path d="m150.58 291.81c49.801 41.64 119.07 62.014 181.5 51.266 48.371-8.329 95.313-27.399 134.16-48.141 9.248-4.938 18.09-10.044 26.707-14.936 19.744-11.208 37.734-22.229 60.061-27.257 6.645-1.496 13.379-2.388 20.212-2.522 42.473-0.835 88.386 21.705 123.48 52.145 9.113 7.904 17.986 15.331 26.847 21.845 24.769 18.206 50.221 28.71 87.889 14.312 26.396-10.089 49.098-28.759 70.359-49.504 9.573-9.34 18.858-19.114 28.066-28.758 29.352-30.781 61.444-62.386 99.455-73.721 10.43-3.111 20.812-4.496 31.092-4.839 17.063-0.57 33.91 1.998 50.927 6.828 9.659 2.74 19.163 6.654 28.426 11.229 14.767 7.29 38.022 25.114 61.345 38.579 36.088 20.834 75.64 34.066 89.801-10.08" stroke-dasharray="0,2.0701" stroke-width="1.035" />
        <path d="m134.54 279.58c50.256 41.48 122.07 63.192 184.66 50.446 49.354-10.05 97.015-29.385 137.02-44.51 9.393-3.549 18.393-6.979 27.168-10.091 19.752-7.003 37.243-13.624 58.91-15.063 6.418-0.426 12.951-0.402 19.596 0.309 41.614 4.452 87.845 27.52 124.8 55.104 9.646 7.196 19.122 13.738 28.541 19.396 26.048 15.647 52.58 23.733 89.83 8.87 26.633-10.626 49.858-29.377 71.676-50.19 9.824-9.372 19.368-19.181 28.826-28.91 29.993-30.912 62.228-62.954 99.77-76.876 10.245-3.8 20.471-6.02 30.586-7.361 16.897-2.239 33.636-1.68 50.818 1.675 9.936 1.941 19.676 5.467 29.15 10 15.755 7.539 38.817 26.151 61.462 40.342 35.496 22.245 74.982 37.981 91.941-3.5" stroke-dasharray="0,2.0979" stroke-width="1.0489" />
        <path d="m118.5 267.35c50.714 41.324 125.06 64.341 187.81 49.632 50.337-11.799 98.63-31.433 139.88-40.879 9.517-2.18 18.641-3.939 27.633-5.25 19.642-2.86 36.729-5.037 57.756-2.865 6.185 0.638 12.525 1.59 18.979 3.139 40.772 9.784 87.319 33.322 126.13 58.063 10.179 6.488 20.248 12.153 30.236 16.951 27.302 13.11 54.933 18.745 91.771 3.428 26.868-11.171 50.619-29.996 72.987-50.876 10.077-9.404 19.88-19.248 29.588-29.064 30.636-31.042 63.012-63.505 100.09-80.028 10.063-4.485 20.13-7.552 30.08-9.884 16.731-3.921 33.379-5.387 50.71-3.478 10.219 1.125 20.192 4.272 29.875 8.771 16.746 7.78 39.609 27.197 61.579 42.104 34.894 23.676 74.325 41.895 94.083 3.079" stroke-dasharray="0,2.1257" stroke-width="1.0628" />
        <path d="m102.46 255.12c51.169 41.167 128.04 65.455 190.96 48.814 51.316-13.568 100.19-33.573 142.74-37.247 9.628-0.832 18.859-0.954 28.096-0.407 19.464 1.153 36.21 3.521 56.604 9.33 5.949 1.693 12.099 3.59 18.362 5.969 39.932 15.166 86.805 39.113 127.46 61.022 10.718 5.775 21.367 10.579 31.933 14.504 28.531 10.601 57.281 13.746 93.71-2.014 27.102-11.723 51.38-30.615 74.303-51.563 10.329-9.438 20.392-19.313 30.349-29.217 31.279-31.175 63.799-64.043 100.4-83.183 9.881-5.167 19.789-9.091 29.576-12.406 16.565-5.612 33.129-9.12 50.6-8.63 10.509 0.295 20.708 3.074 30.6 7.544 17.742 8.015 40.395 28.255 61.697 43.866 34.284 25.123 73.665 45.81 96.223 9.659" stroke-dasharray="0,2.1534" stroke-width="1.0767" />
        <path d="m86.423 242.89c51.626 41.008 131.02 66.541 194.12 47.999 52.287-15.366 101.73-35.832 145.6-33.619 9.735 0.492 19.083 1.968 28.559 4.438 19.294 5.027 35.699 12.049 55.45 21.523 5.716 2.742 11.67 5.599 17.746 8.801 39.072 20.591 86.3 44.891 128.79 63.982 11.258 5.058 22.481 9.014 33.626 12.056 29.753 8.123 59.628 8.737 95.652-7.454 27.329-12.283 52.141-31.236 75.615-52.249 10.581-9.47 20.902-19.382 31.109-29.37 31.922-31.307 64.596-64.57 100.72-86.337 9.699-5.846 19.445-10.636 29.068-14.929 16.398-7.314 32.88-12.88 50.495-13.781 10.796-0.553 21.226 1.872 31.322 6.314 18.742 8.243 41.168 29.326 61.814 45.631 33.662 26.585 73.007 49.723 98.363 16.235" stroke-dasharray="0,2.1812" stroke-width="1.0906" />
        <path d="m70.384 230.66c52.083 40.851 133.99 67.603 197.27 47.183 53.253-17.183 103.3-38.196 148.46-29.988 9.849 1.791 19.34 4.839 29.022 9.28 19.2 8.809 35.206 20.559 54.297 33.719 5.489 3.784 11.237 7.612 17.13 11.632 38.181 26.05 85.798 50.65 130.12 66.941 11.798 4.337 23.596 7.46 35.321 9.609 30.972 5.673 61.968 3.717 97.593-12.896 27.555-12.852 52.901-31.854 76.931-52.935 10.833-9.503 21.414-19.449 31.87-29.524 32.563-31.437 65.397-65.087 101.03-89.489 9.522-6.521 19.1-12.187 28.563-17.452 16.223-9.027 32.628-16.667 50.386-18.934 11.083-1.415 21.745 0.668 32.048 5.085 19.743 8.467 41.938 30.406 61.932 47.394 33.028 28.066 72.35 53.638 100.5 22.816" stroke-dasharray="0,2.209" stroke-width="1.1045" />
        <path d="m54.345 218.43c52.541 40.693 136.94 68.641 200.43 46.366 54.208-19.021 104.93-40.644 151.32-26.356 9.976 3.071 19.645 7.686 29.485 14.123 19.196 12.556 34.735 29.057 53.144 45.913 5.268 4.823 10.799 9.628 16.513 14.462 37.257 31.529 85.299 56.396 131.45 69.902 12.34 3.61 24.708 5.918 37.016 7.161 32.193 3.253 64.305-1.312 99.534-18.339 27.777-13.424 53.662-32.473 78.243-53.62 11.085-9.535 21.927-19.515 32.633-29.677 33.204-31.567 66.208-65.596 101.35-92.643 9.347-7.196 18.749-13.742 28.056-19.975 16.043-10.744 32.364-20.473 50.279-24.085 11.362-2.292 22.265-0.54 32.771 3.856 20.749 8.683 42.699 31.49 62.05 49.156 32.378 29.56 71.691 57.554 102.64 29.396" stroke-dasharray="0,2.2368" stroke-width="1.1184" />
        <path d="m38.306 206.2c52.998 40.535 139.89 69.658 203.58 45.55 55.153-20.877 106.64-43.142 154.18-22.728 10.12 4.346 19.988 10.535 29.949 18.966 19.269 16.312 34.284 37.56 51.99 58.108 5.052 5.864 10.355 11.645 15.896 17.294 36.299 37.013 84.8 62.126 132.78 72.86 12.882 2.882 25.827 4.386 38.711 4.716 33.425 0.853 66.636-6.348 101.47-23.781 27.994-14.007 54.423-33.092 79.559-54.307 11.337-9.566 22.436-19.581 33.392-29.829 33.847-31.699 67.031-66.099 101.66-95.797 9.174-7.868 18.395-15.295 27.552-22.497 15.852-12.465 32.086-24.294 50.168-29.238 11.635-3.18 22.789-1.748 33.497 2.629 21.754 8.892 43.451 32.585 62.167 50.919 31.714 31.064 71.035 61.467 104.78 35.975" stroke-dasharray="0,2.2645" stroke-width="1.1323" />
        <path d="m22.267 193.97c53.454 40.378 142.78 70.542 206.74 44.734 56.044-22.854 108.42-45.659 157.04-19.097 10.279 5.614 20.357 13.394 30.412 23.809 19.393 20.09 33.895 46.032 50.837 70.305 4.854 6.896 9.908 13.659 15.28 20.124 35.313 42.495 84.306 67.778 134.11 75.819 13.425 2.133 26.951 2.861 40.405 2.269 34.673-1.526 68.938-11.438 103.42-29.223 28.188-14.633 55.184-33.71 80.871-54.992 11.589-9.599 22.949-19.649 34.154-29.983 34.487-31.829 67.897-66.556 101.98-98.95 9.014-8.527 18.021-16.869 27.046-25.019 15.627-14.216 31.795-28.129 50.063-34.391 11.896-4.079 23.314-2.976 34.219 1.399 22.774 9.066 44.192 33.685 62.285 52.683 31.029 32.581 70.377 65.382 106.92 42.552" stroke-dasharray="0,2.2923" stroke-width="1.1462" />
        <path d="m6.228 181.74c53.911 40.22 145.75 71.642 209.89 43.916 69.01-29.83 132.52-58.035 190.78 13.188 25.117 30.703 40.854 72.604 64.346 105.45 43.575 60.936 111.64 85.743 177.54 78.601s129.83-43.394 187.54-90.342c57.711-46.948 110.18-104.61 163.75-159.78 15.45-15.912 31.491-31.972 49.955-39.543 38.138-15.639 71.696 25.771 97.346 54.617 30.329 34.108 69.72 69.294 109.06 49.131" stroke-dasharray="0,2.3201" stroke-width="1.16" />
    </g>
</svg>