<?xml version="1.0" encoding="UTF-8"?>
<svg id="Layer_1" data-name="Layer 1" xmlns="http://www.w3.org/2000/svg" viewBox="0 0 1080 1080">
  <defs>
    <style>
      .cls-1 {
        fill: #fff;
        stroke-width: 0px;
      }
    </style>
  </defs>
  <path class="cls-1" d="m475.72,372.57c3.83,7.46,10.69,11.97,17.95,11.97h92.44c7.26,0,14.12-4.5,18.02-11.83l42.35-76.71c-27.97-6.86-62.86-10.49-106.15-10.49s-78.45,3.7-106.49,10.55l41.88,76.51Z"/>
  <path class="cls-1" d="m586.11,686.12h-92.44c-7.26,0-14.12,4.5-17.88,11.76l-47.19,84.84c28.91,7.66,65.62,11.76,111.73,11.76s83.09-4.17,112-11.9l-48.14-84.44c-3.97-7.6-10.69-12.03-18.08-12.03Z"/>
  <path class="cls-1" d="m443.58,655.13l-45.58-87.53c-3.9-7.4-10.62-11.83-17.95-11.83h-50.82v100.3c0,50.09,15.13,90.22,64.67,114.09l49.75-89.01c4.1-7.93,4.1-17.95-.07-26.02Z"/>
  <path class="cls-1" d="m681.66,307.74l-46.25,83.5c-4.1,7.87-4.1,17.88.07,25.88l45.58,87.6c3.9,7.39,10.55,11.76,17.88,11.76h51.83v-91.9c0-51.7-15.86-93.04-69.11-116.84Z"/>
  <path class="cls-1" d="m443.61,391.04l-45.51-82.96c-52.84,23.87-68.84,65.08-68.84,116.51v91.9h50.82c7.33,0,14.05-4.37,17.95-11.76l45.58-87.6c4.17-8,4.17-18.02,0-26.08Z"/>
  <path class="cls-1" d="m681.06,567.64l-45.58,87.46c-4.17,8.07-4.17,18.08,0,26.15l50.82,88.94c49.55-23.87,64.47-64,64.47-114.15v-100.3h-51.83c-7.33,0-13.98,4.44-17.88,11.9Z"/>
  <path class="cls-1" d="m475.81,636.75c3.7,7.4,10.56,11.9,17.88,11.9h92.44c7.4,0,14.12-4.44,18.02-11.9l45.51-87.46c4.23-8.07,4.23-18.02,0-26.02l-45.58-87.67c-3.83-7.39-10.56-11.83-17.95-11.83h-92.44c-7.33,0-14.18,4.57-17.88,11.83l-45.65,87.6c-4.1,8.07-4.1,18.08,0,26.15l45.65,87.4Z"/>
</svg>